<?xml version="1.0" encoding="UTF-8"?>
<svg width="561px" height="548px" viewBox="0 0 561 548" version="1.1" xmlns="http://www.w3.org/2000/svg" xmlns:xlink="http://www.w3.org/1999/xlink">
    <!-- Generator: Sketch 52.6 (67491) - http://www.bohemiancoding.com/sketch -->
    <title>logo-stacked-white</title>
    <desc>Created with Sketch.</desc>
    <g id="Page-1" stroke="none" stroke-width="1" fill="none" fill-rule="evenodd">
        <g id="logo-stacked-white" transform="translate(0.000000, -1.000000)">
            <polygon id="Path" fill="#FFFFFF" points="13.86 537.44 62.51 537.44 62.51 547.1 0 547.1 0 540.94 48 453.16 0.7 453.16 0.7 443.5 61.81 443.5 61.81 449.66"></polygon>
            <path d="M152.81,547.1 L142.52,513.57 L104.79,513.57 L94.57,547.1 L83.86,547.1 L116.13,443.5 L131.46,443.5 L163.73,547.1 L152.81,547.1 Z M107.73,504.05 L139.65,504.05 L123.65,451.83 L107.73,504.05 Z" id="Shape" fill="#FFFFFF" fill-rule="nonzero"></path>
            <path d="M191.24,444.69 C198.786426,443.242902 206.446605,442.469856 214.13,442.38 C226.916667,442.38 236.483333,445.273333 242.83,451.06 C249.176667,456.846667 252.35,465.783333 252.35,477.87 C252.35,501.39 239.166667,513.15 212.8,513.15 C208.926667,513.15 205.333333,512.986667 202.02,512.66 L202.02,547.1 L191.24,547.1 L191.24,444.69 Z M234.71,497.69 C239.33,493.516667 241.64,487.016667 241.64,478.19 C241.64,468.95 239.47,462.216667 235.13,457.99 C230.79,453.763333 224.023333,451.653333 214.83,451.66 C210.540619,451.662943 206.257875,451.997271 202.02,452.66 L202.02,503.34 C205.712199,503.793521 209.430207,504.003975 213.15,503.97 C222.903333,503.93 230.09,501.823333 234.71,497.65 L234.71,497.69 Z" id="Shape" fill="#FFFFFF" fill-rule="nonzero"></path>
            <path d="M289.59,535.9 C281.703333,527.546667 277.76,514.083333 277.76,495.51 C277.76,477.356667 281.866667,463.93 290.08,455.23 C298.293333,446.53 310.1,442.18 325.5,442.18 C331.941957,442.140495 338.363002,442.916665 344.61,444.49 L344.61,462.06 C338.8983,460.55856 333.015728,459.805591 327.11,459.82 C320.856667,459.82 315.713333,460.94 311.68,463.18 C307.646667,465.42 304.6,469.14 302.54,474.34 C300.486667,479.546667 299.46,486.513333 299.46,495.24 C299.46,504.246667 300.46,511.34 302.46,516.52 C304.46,521.7 307.46,525.366667 311.46,527.52 C315.46,529.693333 320.63,530.78 326.97,530.78 C331.87,530.78 337.75,529.683333 344.61,527.49 L344.61,545.06 C341.511577,546.188806 338.309428,547.009441 335.05,547.51 C331.454345,548.110545 327.815458,548.4149 324.17,548.42 C309.003333,548.426667 297.476667,544.253333 289.59,535.9 Z" id="Path" fill="#FFFFFF"></path>
            <polygon id="Path" fill="#FFFFFF" points="447.65 443.5 473.13 443.5 473.13 547.1 453.81 547.1 453.81 473 430.92 532.15 414.33 532.15 391.44 474.68 391.44 547.1 372.12 547.1 372.12 443.5 397.6 443.5 423 509.09"></polygon>
            <path d="M510.23,547.38 C506.141403,546.775414 502.122097,545.770587 498.23,544.38 L498.23,526.88 C506.016909,529.492891 514.166766,530.863012 522.38,530.94 C533.906667,530.94 539.67,526.856667 539.67,518.69 C539.917948,514.629577 537.750511,510.804226 534.14,508.93 C531.481353,507.405709 528.664788,506.175139 525.74,505.26 L518.74,502.95 C511.506667,500.476667 505.84,496.81 501.74,491.95 C497.64,487.09 495.6,480.93 495.62,473.47 C495.451795,467.572593 496.95647,461.748042 499.96,456.67 C503.069856,451.824182 507.614439,448.069657 512.96,445.93 C518.72,443.436667 525.846667,442.186667 534.34,442.18 C538.144305,442.172929 541.945241,442.40673 545.72,442.88 C548.999057,443.28178 552.239828,443.95067 555.41,444.88 L555.41,462.38 C549.206327,460.554417 542.766411,459.658019 536.3,459.72 C523.14,459.72 516.56,463.78 516.56,471.9 C516.502381,473.737395 516.886466,475.561795 517.68,477.22 C518.583028,478.828636 519.898069,480.167838 521.49,481.1 C523.88612,482.518031 526.435866,483.658707 529.09,484.5 L536.02,486.81 C544.02,489.516667 550.1,493.263333 554.26,498.05 C558.42,502.836667 560.506667,509.123333 560.52,516.91 C560.67452,522.831692 559.134075,528.67428 556.08,533.75 C552.97253,538.609124 548.468949,542.415556 543.16,544.67 C537.513333,547.21 530.723333,548.48 522.79,548.48 C518.581097,548.440548 514.381686,548.072766 510.23,547.38 Z" id="Path" fill="#FFFFFF"></path>
            <path d="M196.09,228.39 C197.47717,229.881199 199.456702,230.676677 201.49,230.56 L245.74,228.47 L209.79,349 C208.838765,351.890761 209.945798,355.060155 212.49,356.73 C214.810711,358.452924 217.332608,359.886812 220,361 C223.09,362.1 226.94,362.79 231.85,357.65 L389.18,188 C391.230597,185.26848 390.988823,181.45099 388.61,179 L388.55,178.94 L388.49,178.88 L388.43,178.82 L388.37,178.76 L388.31,178.7 L388.25,178.64 L388.19,178.58 L388.13,178.52 L388.07,178.46 L388.01,178.4 L387.95,178.34 L387.89,178.28 L387.83,178.22 L387.77,178.16 L387.71,178.1 L387.65,178.04 L387.59,177.98 L387.53,177.92 L387.47,177.86 L387.41,177.8 L387.35,177.74 L387.29,177.68 L387.23,177.62 L387.17,177.56 L387.11,177.5 L386.93,177.32 L386.87,177.26 L386.81,177.2 L386.75,177.14 L386.69,177.08 L386.63,177.02 L386.57,176.96 L386.51,176.9 L386.45,176.84 L386.39,176.78 L386.33,176.72 L386.27,176.66 L386.21,176.6 L386.15,176.54 L386.09,176.48 L386.03,176.42 L385.97,176.36 L385.91,176.3 L385.85,176.24 L385.79,176.18 L385.73,176.12 L385.67,176.06 L385.61,176 L385.55,175.94 L385.49,175.88 L385.43,175.82 L385.37,175.76 L385.31,175.7 L385.25,175.64 L385.19,175.58 L385.13,175.52 L385.07,175.46 L385.01,175.4 L384.95,175.34 L384.89,175.28 L384.83,175.22 L384.77,175.16 L384.71,175.1 L384.65,175.04 L384.59,174.98 L384.47,174.86 L384.41,174.8 L384.35,174.74 L384.23,174.62 L384.17,174.56 L384.11,174.5 L384.05,174.44 L383.99,174.38 L383.93,174.32 L383.87,174.26 L383.81,174.2 L383.75,174.14 L383.69,174.08 L383.63,174.02 L383.57,173.96 L383.51,173.9 L383.45,173.84 L383.39,173.78 L383.33,173.72 L383.27,173.66 L383.21,173.6 L383.15,173.54 L383.09,173.48 L383.03,173.42 L382.97,173.36 L382.85,173.24 L382.79,173.18 L382.73,173.12 L382.67,173.06 L382.61,173 L382.55,172.94 L382.49,172.88 L382.43,172.82 L382.37,172.76 L382.31,172.7 L382.25,172.64 L382.19,172.58 L382.13,172.52 L382.07,172.46 L382.01,172.4 L381.95,172.34 L381.89,172.28 L381.83,172.22 L381.77,172.16 L381.71,172.1 L381.65,172.04 L381.59,171.98 L381.53,171.92 L381.47,171.86 L381.41,171.8 L381.35,171.74 L381.29,171.68 L381.23,171.62 L381.17,171.56 L381.11,171.5 L381.05,171.44 L380.99,171.38 L380.93,171.32 L380.87,171.26 L380.81,171.2 L380.75,171.14 L380.69,171.08 L380.63,171.02 L380.57,170.96 L380.51,170.9 L380.45,170.84 L380.39,170.78 L380.33,170.72 L380.27,170.66 L380.21,170.6 L380.15,170.54 L380.09,170.48 L380.03,170.42 L379.97,170.36 L379.91,170.3 L379.85,170.24 L379.79,170.18 L379.73,170.12 L379.67,170.06 L379.55,169.94 L379.49,169.88 L379.43,169.82 L379.31,169.7 L379.25,169.64 L379.19,169.58 L379.13,169.52 L379.07,169.46 L379.01,169.4 L378.95,169.34 L378.89,169.28 L378.83,169.22 L378.77,169.16 L378.71,169.1 L378.65,169.04 L378.59,168.98 L378.53,168.92 L378.47,168.86 L378.41,168.8 L378.35,168.74 L378.29,168.68 L378.23,168.62 L378.17,168.56 L378.11,168.5 L378.05,168.44 L377.99,168.38 L377.93,168.32 L377.87,168.26 L377.81,168.2 L377.75,168.14 L377.69,168.08 L377.63,168.02 L377.57,167.96 L377.51,167.9 L377.45,167.84 L377.39,167.78 L377.33,167.72 L377.27,167.66 L377.21,167.6 L377.15,167.54 L377.09,167.48 L377.03,167.42 L376.97,167.36 L376.91,167.3 L376.85,167.24 L376.79,167.18 L376.73,167.12 L376.67,167.06 L376.61,167 L376.55,166.94 L376.49,166.88 L376.43,166.82 L376.37,166.76 L376.31,166.7 L376.25,166.64 L376.19,166.58 L376.13,166.52 L376.07,166.46 L376.01,166.4 L375.95,166.34 L375.89,166.28 L375.83,166.22 L375.77,166.16 L375.71,166.1 L375.65,166.04 L375.59,165.98 L375.53,165.92 L375.47,165.86 L375.41,165.8 L375.35,165.74 L375.29,165.68 L375.23,165.62 L375.17,165.56 L375.11,165.5 L375.05,165.44 L374.99,165.38 L374.93,165.32 L374.87,165.26 L374.81,165.2 L374.75,165.14 L374.69,165.08 L374.63,165.02 L374.57,164.96 L374.51,164.9 L374.45,164.84 L374.39,164.78 L374.33,164.72 L374.27,164.66 L374.21,164.6 L374.15,164.54 L374.09,164.48 L374.03,164.42 L373.97,164.36 L373.79,164.18 L373.73,164.12 L373.67,164.06 L373.61,164 L373.55,163.94 L373.49,163.88 L373.43,163.82 L373.37,163.76 L373.31,163.7 L373.25,163.64 L373.19,163.58 L373.13,163.52 L373.07,163.46 L373.01,163.4 L372.95,163.34 L372.89,163.28 L372.77,163.16 L372.71,163.1 L372.65,163.04 L372.59,162.98 L372.47,162.86 L372.41,162.8 L372.35,162.74 L372.29,162.68 L372.23,162.62 L372.17,162.56 L372.11,162.5 L372.05,162.44 L371.99,162.38 L371.93,162.32 L371.87,162.26 L371.81,162.2 L371.75,162.14 L371.69,162.08 L371.63,162.02 L371.57,161.96 L371.51,161.9 L371.45,161.84 L371.39,161.78 L371.33,161.72 L371.27,161.66 L371.21,161.6 L371.15,161.54 L371.09,161.48 L371.03,161.42 L370.97,161.36 L370.91,161.3 L370.85,161.24 L370.79,161.18 L370.73,161.12 L370.67,161.06 L370.61,161 L370.55,160.94 L370.49,160.88 L370.43,160.82 L370.37,160.76 L370.31,160.7 L370.25,160.64 L370.19,160.58 L370.13,160.52 L370.07,160.46 L370.01,160.4 L369.95,160.34 L369.89,160.28 L369.83,160.22 L369.77,160.16 L369.71,160.1 L369.65,160.04 L369.59,159.98 L369.53,159.92 L369.47,159.86 L369.41,159.8 L369.35,159.74 L369.17,159.56 L369.11,159.5 L369.05,159.44 L368.99,159.38 L368.93,159.32 L368.87,159.26 L368.81,159.2 L368.75,159.14 L368.69,159.08 L368.63,159.02 L368.57,158.96 L368.51,158.9 L368.45,158.84 L368.39,158.78 L368.33,158.72 L368.27,158.66 L368.21,158.6 L368.15,158.54 L368.09,158.48 L368.03,158.42 L367.97,158.36 L367.91,158.3 L367.85,158.24 L367.79,158.18 L367.73,158.12 L367.67,158.06 L367.61,158 L367.55,157.94 L367.49,157.88 L367.43,157.82 L367.37,157.76 L367.31,157.7 L367.25,157.64 L367.19,157.58 L367.13,157.52 L367.07,157.46 L367.01,157.4 L366.95,157.34 L366.89,157.28 L366.83,157.22 L366.77,157.16 L366.71,157.1 L366.65,157.04 L366.59,156.98 L366.47,156.86 L366.41,156.8 L366.35,156.74 L366.29,156.68 L366.23,156.62 L366.17,156.56 L366.11,156.5 L366.05,156.44 L365.93,156.32 L365.87,156.26 L365.81,156.2 L365.75,156.14 L365.63,156.02 L365.57,155.96 L365.51,155.9 L365.45,155.84 L365.39,155.78 L365.33,155.72 L365.27,155.66 L365.21,155.6 L365.15,155.54 L365.09,155.48 L365.03,155.42 L364.97,155.36 L364.91,155.3 L364.85,155.24 L364.79,155.18 L364.73,155.12 L364.67,155.06 L364.61,155 C363.22283,153.508801 361.243298,152.713323 359.21,152.83 L314.96,154.92 L350.77,34.2 C351.572719,31.7642779 350.912369,29.0840337 349.07,27.3 L349.01,27.24 L348.95,27.18 L348.89,27.12 L348.83,27.06 L348.77,27 L348.71,26.94 L348.65,26.88 L348.59,26.82 L348.53,26.76 L348.47,26.7 L348.41,26.64 L348.35,26.58 L348.29,26.52 L348.23,26.46 L348.17,26.4 L348.11,26.34 L348.05,26.28 L347.99,26.22 L347.93,26.16 L347.69,25.92 L347.63,25.86 L347.57,25.8 L347.27,25.5 L347.21,25.44 L347.15,25.38 L346.79,25.02 L346.73,24.96 L346.67,24.9 L346.61,24.84 L346.55,24.78 L346.37,24.6 L346.31,24.54 L346.25,24.48 L346.13,24.36 L346.07,24.3 L346.01,24.24 L345.95,24.18 L345.77,24 L345.71,23.94 L345.65,23.88 L345.59,23.82 L345.53,23.76 L345.47,23.7 L345.35,23.58 L345.29,23.52 L345.11,23.34 L345,23.2 L344.94,23.14 L344.88,23.08 L344.82,23.02 L344.76,22.96 L344.64,22.84 L344.58,22.78 L344.52,22.72 L344.28,22.48 L344.22,22.42 L344.16,22.36 L344.1,22.3 L343.98,22.18 L343.92,22.12 L343.8,22 L343.62,21.82 L343.56,21.76 L343.38,21.58 L343.32,21.52 L343.2,21.4 L343.14,21.34 L343.08,21.28 L342.9,21.1 L342.84,21.04 L342.72,20.92 L342.6,20.8 L342.54,20.74 L342.48,20.68 L342.42,20.62 L342.3,20.5 L342.24,20.44 L342.18,20.38 L342.12,20.32 L341.94,20.14 L341.88,20.08 L341.82,20.02 L341.58,19.78 L341.52,19.72 L341.46,19.66 L341.34,19.54 L341.22,19.42 L341.16,19.36 L341.1,19.3 L341.04,19.24 L340.92,19.12 L340.8,19 L340.68,18.88 L340.62,18.82 L340.44,18.64 L340.2,18.4 L340.14,18.34 L340.08,18.28 L340.02,18.22 L339.84,18.04 L339.72,17.92 L339.66,17.86 L339.6,17.8 L339.54,17.74 L339.48,17.68 L339.42,17.62 L339.36,17.56 L339.3,17.5 L339.24,17.44 L339.18,17.38 L339.12,17.32 L339.06,17.26 L339,17.2 L338.82,17.02 L338.76,16.96 L338.58,16.78 L338.52,16.72 L338.46,16.66 L338.4,16.6 L338.34,16.54 L338.28,16.48 L338.22,16.42 L338.16,16.36 L338.1,16.3 L338,16.2 L337.88,16.08 L337.82,16.02 L337.76,15.96 L337.7,15.9 L337.64,15.84 L337.52,15.72 L337.46,15.66 L337.4,15.6 L337.34,15.54 L337.28,15.48 L337.22,15.42 L337.16,15.36 L337.1,15.3 L337.04,15.24 L336.98,15.18 L336.92,15.12 L336.86,15.06 L336.8,15 L336.74,14.94 L336.68,14.88 L336.62,14.82 L336.56,14.76 L336.5,14.7 L336.44,14.64 L336.38,14.58 L336.32,14.52 L336.26,14.46 L336.2,14.4 L336.14,14.34 L336.08,14.28 L336.02,14.22 L335.96,14.16 L335.9,14.1 L335.84,14.04 L335.78,13.98 L335.72,13.92 L335.66,13.86 L335.6,13.8 L335.12,13.32 L335.06,13.26 L335,13.2 L334.88,13.08 L334.82,13.02 L334.76,12.96 L334.58,12.78 L334.52,12.72 L334.46,12.66 L334.4,12.6 L334.34,12.54 L334.16,12.36 L334.1,12.3 L334.04,12.24 L333.98,12.18 L333.68,11.88 L333.62,11.82 L333.56,11.76 L333.5,11.7 L333.44,11.64 L333.26,11.46 L333.2,11.4 L333.14,11.34 L333.08,11.28 L333.02,11.22 L332.84,11.04 L332.78,10.98 L332.72,10.92 L332.66,10.86 L332.42,10.62 L332.36,10.56 L332.24,10.44 L332.18,10.38 L332,10.28 L331.88,10.16 L331.82,10.1 L331.8,10 L331.62,9.82 L331.56,9.76 L331.5,9.7 L331.44,9.64 L331.32,9.52 L331.26,9.46 L331.2,9.4 L331.14,9.34 L331,9.2 L330.94,9.14 L330.88,9.08 L330.78,9 L330.72,9 L330.66,8.94 L330.6,8.88 L330.54,8.82 L330.48,8.76 L330.42,8.7 L330.36,8.64 L330.3,8.58 L330.24,8.52 L330.18,8.46 L330.12,8.4 L330.06,8.34 L330,8.23 L329.94,8.17 L329.88,8.11 L329.81,8 L329.75,8 L329.69,7.94 L329.63,7.88 L329.57,7.82 L329.51,7.76 L329.45,7.7 L329.39,7.64 L329.33,7.58 L329.27,7.52 L329.15,7.4 L329.09,7.34 L329,7.27 L328.88,7.15 L328.82,7.09 L328.79,7 L328.73,7 L328.67,6.94 L328.61,6.88 L328.55,6.82 L328.49,6.76 L328.43,6.7 L328.37,6.64 L328.31,6.58 L328.25,6.52 L328.07,6.34 L328,6.24 L327.94,6.18 L327.88,6.12 L327.82,6.06 L327.76,6 L327.7,5.94 L327.64,5.88 L327.58,5.82 L327.52,5.76 L327.46,5.7 L327.4,5.64 L327.34,5.58 L327.28,5.52 L327.22,5.46 L327.16,5.4 L327.1,5.34 L327,5.27 L327,5.21 L326.94,5.15 L326.88,5.09 L326.8,5 L326.73,5 L326.67,4.94 L326.61,4.88 L326.55,4.82 L326.49,4.76 L326.43,4.7 L326.37,4.64 L326.31,4.58 L326.25,4.52 L326.19,4.46 L326.13,4.4 L326.07,4.34 L326,4.25 L326,4.19 L325.94,4.13 L325.88,4.07 L325.77,4 L325.71,3.94 L325.65,3.88 L325.59,3.82 L325.53,3.76 L325.47,3.7 L325.35,3.58 L325.29,3.52 L325.23,3.46 L325.17,3.4 L325,3.28 L325,3.22 L324.94,3.16 C323.526929,1.66610197 321.522658,0.878032596 319.470529,1.00943073 C317.418399,1.14082886 315.531004,2.1780821 314.32,3.84 L171.38,195.23 C169.329403,197.96152 169.571177,201.77901 171.95,204.23" id="Path" fill="#27223E"></path>
            <path d="M359.06,152.68 L292.76,155.81 C290.498453,155.904951 288.330577,154.900476 286.940898,153.113746 C285.551219,151.327016 285.111282,148.978589 285.76,146.81 L326.57,10 C328.8,2.54 318.97,-2.4 314.31,3.84 L171.38,195.23 C169.794564,197.395695 169.58704,200.277235 170.845785,202.647764 C172.104529,205.018292 174.60788,206.460365 177.29,206.36 L243.59,203.23 C245.851547,203.135049 248.019423,204.139524 249.409102,205.926254 C250.798781,207.712984 251.238718,210.061411 250.59,212.23 L209.79,349 C207.56,356.46 217.39,361.4 222.05,355.16 L365,163.81 C366.589365,161.639925 366.79468,158.751079 365.528203,156.378034 C364.261727,154.00499 361.7475,152.567543 359.06,152.68 Z" id="Path" fill="#F8E71C"></path>
        </g>
    </g>
</svg>