<?xml version="1.0" encoding="UTF-8"?>
<svg width="143px" height="178px" viewBox="0 0 143 178" version="1.1" xmlns="http://www.w3.org/2000/svg" xmlns:xlink="http://www.w3.org/1999/xlink">
    <!-- Generator: Sketch 52.6 (67491) - http://www.bohemiancoding.com/sketch -->
    <title>Cells</title>
    <desc>Created with Sketch.</desc>
    <g id="Symbols" stroke="none" stroke-width="1" fill="none" fill-rule="evenodd" opacity="0.5">
        <g id="Scene/Whiteboard" transform="translate(-95.000000, -125.000000)">
            <g id="Cells" transform="translate(95.000000, 125.000000)">
                <path d="M1.90802857,2.67231771 C0.335028571,4.24279688 0.946028571,9.82430208 0.913064286,11.8898437 C0.862457143,15.1054323 1.06256429,18.2922812 1.33138571,21.4962813 C1.51152857,23.6415521 2.52692143,44.1138698 5.35256429,42.5415365 C6.94552857,41.6557083 5.94685,35.7335 5.94406429,33.8603281 C5.93756429,29.6958698 5.76438571,25.5416094 5.48674286,21.3864219 C5.2286,17.5288281 5.06656429,13.7161979 5.21513571,9.8511875 C5.25135,8.90788021 6.13395714,-1.56120833 1.90802857,2.67231771" id="Fill-5" fill="#89C5CC"></path>
                <path d="M70.4094393,0.148657812 C56.8959393,0.256199479 43.3880107,0.922772396 29.8810107,1.3311526 C23.381475,1.52769427 16.8861179,1.77754323 10.3935464,2.1377151 C8.181225,2.26055365 3.436225,1.55226198 1.59301071,2.73104844 C-2.49873929,5.34820469 4.10015357,5.96007969 5.85933214,5.89611094 C32.5896536,4.92684531 59.3292607,3.65025156 86.0823321,3.58999115 C99.2058321,3.56078802 112.322832,3.9344026 125.447725,3.85050156 C130.464796,3.81851719 136.020439,1.6570224 137.287475,7.49672031 C138.717475,14.0864286 137.074368,21.4233661 136.627261,28.0450589 C136.328725,32.4653922 136.435046,36.7939443 136.634225,41.2105693 C136.761904,44.0400276 136.429475,47.2282672 136.929511,50.0048818 C137.410975,52.6785901 139.333118,54.2819807 141.095082,51.287038 C142.147618,49.4973036 141.623904,45.0783609 141.694011,43.0049391 C141.788261,40.2125641 141.699582,37.4211161 141.699582,34.6282776 C141.698654,27.8114339 142.661118,21.0214755 142.533904,14.2060224 C142.452189,9.81118385 142.218654,1.84382969 136.675546,0.787881771 C130.571582,-0.375144271 123.068725,0.794371354 116.822225,0.722985937 C101.344332,0.546376562 85.8924393,0.0276734375 70.4094393,0.148657812" id="Fill-7" fill="#89C5CC"></path>
                <path d="M33.1736321,42.786101 C28.0780964,42.786101 22.9820964,42.8166948 17.887025,42.9010594 C13.5171679,42.9733719 6.64666786,42.0625125 2.579525,43.6260385 C-0.204796429,44.6963562 -0.944403571,47.8048667 2.579525,48.6327521 C6.42288214,49.5361948 12.2153107,48.059351 16.2364893,47.9884292 C36.4004179,47.6324292 56.7584179,47.168424 76.894025,48.4436271 C95.7616679,49.638174 114.992846,50.7965646 133.888346,49.5357312 C135.478061,49.4295802 143.586346,49.1069552 139.886454,46.0675125 C137.727989,44.2935385 128.979454,45.4602729 126.174239,45.3754448 C116.279846,45.076924 106.375704,45.0106375 96.4845607,44.6356323 C86.7224893,44.2652625 77.0035964,43.1675958 67.238275,42.8959604 C55.8929893,42.5802885 44.5226321,42.786101 33.1736321,42.786101" id="Fill-9" fill="#89C5CC"></path>
                <path d="M28.0753107,13.8039 C36.0173821,14.1506292 43.8749536,25.6687125 35.8390964,31.2353844 C28.3004893,36.4585719 14.1718107,30.7342958 18.3638464,20.6059104 C17.7612036,22.0702385 19.1257393,19.0150354 19.1429179,18.9946396 C19.9400964,18.0555042 21.3714893,17.0157802 22.3539179,16.2755042 C23.4784179,15.42815 24.6493464,14.4955042 26.0050607,14.0709 C26.8950964,13.7923115 26.7553464,14.8408427 28.0753107,13.8039 M24.2073464,9.64963958 C20.490275,11.1009885 18.793775,12.7382177 16.239275,15.7007125 C14.4717393,17.7509573 12.2185607,18.8296188 12.238525,21.6002073 C12.2427036,22.2134729 13.0305964,22.8874625 13.1666321,23.4780146 C13.3546679,24.2943115 13.1369179,25.3400615 13.2859536,26.2073479 C14.8236679,35.1564833 25.5013107,38.173676 33.3170964,36.4840667 C40.1253821,35.0123219 45.2172036,28.4768479 43.640025,21.3702906 C42.0521679,14.2164521 31.4437036,6.81925417 24.2073464,9.64963958" id="face" fill="#89C5CC"></path>
                <path d="M20.8963393,22.1426901 C20.8963393,25.361987 25.9816607,25.361987 25.9816607,22.1426901 C25.9816607,18.960013 20.8963393,18.8232682 20.8963393,22.1426901" id="Fill-13" fill="#89C5CC"></path>
                <path d="M27.2584929,21.4910432 C27.2584929,24.0493297 31.2991714,24.0493297 31.2991714,21.4910432 C31.2991714,18.9619599 27.2584929,18.8539547 27.2584929,21.4910432" id="Fill-15" fill="#89C5CC"></path>
                <path d="M28.5096964,26.76675 C27.2157321,27.2641302 25.5744821,26.23275 24.5121964,26.9123021 C22.6309107,28.1165833 24.5168393,29.2063698 25.5252679,29.6903073 C30.0655179,31.8689531 30.873375,25.8614531 28.5096964,26.76675" id="Fill-17" fill="#89C5CC"></path>
                <path d="M97.8496071,19.6317776 C97.7145,19.6892568 97.2325714,19.8932151 97.8496071,19.6317776 M78.0775357,16.7420589 C74.6794286,17.5092203 71.8101429,20.6826266 68.1181429,20.2580224 C65.2887857,19.9326161 63.3731429,17.2023557 60.58,16.8055641 C57.0068571,16.2975224 47.2823929,24.4484391 52.3951071,25.8469443 C55.3781429,26.6632411 57.0328571,21.2119911 59.6681429,20.9222776 C61.7527857,20.693288 64.5877143,23.2497203 66.7480357,23.6136005 C70.7780357,24.2926891 73.5456429,22.072788 77.0835,20.6413714 C80.9277857,19.0857255 83.1150357,20.4865484 86.4583571,22.2155589 C89.0973571,23.5802255 91.5826786,24.4688349 94.6023929,23.9056318 C97.4363929,23.3776578 100.996536,20.4633714 103.849107,20.7623557 C106.643179,21.0553141 108.637286,23.9709911 111.511214,24.2416995 C112.696071,24.3529495 114.459893,24.7566943 114.260714,22.9284859 C114.101464,21.4646214 112.468107,21.7126161 111.446214,21.1804703 C108.818357,19.8120953 106.360429,17.3882359 103.188893,17.5949755 C100.803393,17.7507255 98.6314643,19.4268922 96.4330714,20.2288193 C89.2329286,22.8547828 85.1852857,15.1479391 78.0775357,16.7420589" id="Fill-19" fill="#89C5CC"></path>
                <path d="M84.0924964,63.1111052 C70.2038536,63.2385792 56.2683179,63.4448552 42.418675,64.5582823 C39.1352464,64.8220375 5.60824643,67.9875635 5.67185357,68.215626 C5.78931786,68.637449 10.1016036,69.2817719 10.074675,69.3814333 C9.78403214,68.660626 9.11963929,68.3621052 8.08196071,68.4867979 C39.8794964,68.4867979 71.5762821,65.639725 103.415604,66.1519385 C111.415711,66.2803396 119.445996,66.2265688 127.440532,66.4787354 C129.436496,66.5417771 134.381604,67.9722667 135.949032,67.0711417 C140.062604,64.7056885 132.589461,64.4326625 131.351675,64.3334646 C115.682961,63.0800479 99.8053179,62.9544281 84.0924964,63.1111052" id="Fill-21" fill="#69A1AC"></path>
                <path d="M1.55572857,69.8591594 C-0.520557143,71.940925 1.39137143,79.4299042 1.47308571,82.2445292 C1.59147857,86.3139615 1.49397857,90.4121333 1.85101429,94.4709042 C2.25865714,99.1072479 2.89101429,104.046748 4.10744286,108.544956 C4.77740714,111.02305 7.12901429,114.9613 8.06083571,110.458456 C8.72615714,107.242404 7.71587143,102.975967 7.36440714,99.6996542 C6.89408571,95.3168677 6.78033571,90.9915604 6.76269286,86.587451 C6.74690714,82.7497896 6.67308571,78.8963677 6.3583,75.0707583 C6.19487143,73.0844823 5.19572857,66.2384354 1.55572857,69.8591594" id="Fill-23" fill="#69A1AC"></path>
                <path d="M53.794,107.998162 C43.9381429,108.167355 34.0609286,108.39959 24.2217857,109.015173 C20.189,109.267803 16.1594643,109.643735 12.1415357,110.070194 C11.3216071,110.156876 2.24667857,110.525392 6.30175,113.87448 C8.13196429,115.386553 15.6608214,113.29598 18.1475357,113.078116 C22.3298214,112.711454 26.5111786,112.473194 30.7055357,112.295657 C40.4239643,111.883105 50.1721071,111.518761 59.9002857,111.687491 C77.6666429,111.995746 95.3187857,112.133418 113.09025,111.73709 C115.615036,111.681001 135.395929,112.209439 136.06775,109.582548 C136.609107,107.465553 129.53525,108.436673 128.245464,108.475147 C123.513929,108.616527 118.781929,108.583616 114.048536,108.559511 C93.9974286,108.456605 73.8297857,107.659314 53.794,107.998162" id="Fill-25" fill="#69A1AC"></path>
                <path d="M132.718718,66.346626 C133.031646,75.1219333 134.526182,83.8870427 135.003932,92.6887719 C135.222146,96.7123135 135.479361,100.732147 135.676218,104.757079 C135.739825,106.055459 135.216575,109.183902 136.751968,109.930668 C138.857968,110.955095 139.141646,108.890944 139.535825,107.494756 C140.674718,103.461944 139.904468,98.2234594 139.800932,94.081251 C139.701111,90.0697615 139.694146,86.0513188 139.398396,82.0472458 C139.095218,77.9564906 138.271575,73.9431469 137.889468,69.8667615 C137.727896,68.14285 138.292932,65.2739906 136.462718,64.2041365 C134.880896,63.2793708 132.650468,64.4447146 132.718718,66.346626" id="Fill-27" fill="#69A1AC"></path>
                <path d="M35.8446214,80.9441094 C35.8822286,80.972849 35.9193714,81.0020521 35.9565143,81.0312552 C35.9193714,81.0020521 35.8817643,80.9733125 35.8446214,80.9441094 M27.4689071,78.3441042 C30.5921571,79.2364219 33.1573357,78.903599 36.1408357,81.1772708 C38.6140857,83.0624948 41.1509429,85.8205677 41.9713357,88.8688177 C43.86655,95.9114063 37.4413,99.7708542 31.4176571,99.846875 C25.2477643,99.9242865 16.1152643,98.4933333 16.4314429,90.584849 C16.6738,84.5087448 21.1105143,78.5800469 27.4689071,78.3441042 M27.6889786,74.3641354 C19.5899786,74.7674167 13.0570143,83.8625677 13.1271214,91.5184219 C13.2116214,100.797135 23.7253714,103.18762 31.1938714,103.252052 C39.6229786,103.324365 48.0284071,97.5041354 45.7696571,88.0251719 C43.9598714,80.4305052 35.4773714,73.9594635 27.6889786,74.3641354" id="face" fill="#69A1AC"></path>
                <path d="M19.54225,86.8223276 C19.54225,89.4098172 23.6302857,89.4098172 23.6302857,86.8223276 C23.6302857,84.2645047 19.54225,84.1546453 19.54225,86.8223276" id="Fill-31" fill="#69A1AC"></path>
                <path d="M28.11705,85.6870214 C28.11705,88.2949068 32.2375857,88.2949068 32.2375857,85.6870214 C32.2375857,83.1088026 28.11705,82.9980161 28.11705,85.6870214" id="Fill-33" fill="#69A1AC"></path>
                <path d="M23.3898321,91.5886021 C20.7290107,94.2451594 30.076475,98.9023625 32.2809036,95.2065448 C34.0916179,92.171274 30.1493679,93.1776229 28.7518679,93.0135292 C27.2331893,92.8346021 24.629475,90.3523365 23.3898321,91.5886021" id="Fill-35" fill="#69A1AC"></path>
                <path d="M98.1244179,85.7404677 C97.8681321,85.8480094 97.8681321,85.8480094 98.1244179,85.7404677 M63.0220964,81.415624 C60.3278464,81.9208844 51.4859893,84.903775 51.3666679,88.1003583 C51.1484536,93.9103896 59.8078464,87.9594417 61.6882036,87.1950615 C66.796275,85.1193219 69.4803107,89.353775 74.6115964,89.5772021 C79.068275,89.771426 83.1660607,85.9574052 87.3641321,86.4084312 C91.762775,86.8807802 93.878525,91.5602333 98.9564179,89.07565 C101.642775,87.7615094 101.574989,85.7353687 98.5594536,85.5443896 C96.7366679,85.4289677 95.4844893,86.1822229 93.5841679,85.3979104 C90.612275,84.1723062 89.4153464,82.1762958 85.8589179,82.4933583 C83.1753464,82.7325458 80.7499179,84.2450823 78.1304179,84.8305354 C72.1323107,86.1706344 68.8052393,80.3323271 63.0220964,81.415624" id="Fill-37" fill="#69A1AC"></path>
                <path d="M118.817586,88.2630151 C118.632336,88.3408901 118.632336,88.3408901 118.817586,88.2630151 M119.4973,85.8437911 C119.527014,85.8567703 119.730371,86.1386036 119.4973,85.8437911 M116.408871,83.9970411 C116.2928,84.0865047 116.2928,84.0865047 116.408871,83.9970411 M116.476193,83.9743276 C117.075121,84.3326453 121.890229,87.6251818 118.392764,88.400687 C116.617336,88.7942339 115.148336,85.2217182 116.476193,83.9743276 M114.881836,80.3267182 C107.168657,83.8436089 115.468693,96.4287651 121.52205,91.315437 C124.069121,89.1636766 124.404336,84.8147286 121.926443,82.5730411 C120.441657,81.2296974 116.8973,79.4061245 114.881836,80.3267182" id="point" fill="#69A1AC"></path>
                <path d="M42.4768036,129.920856 C32.8521607,129.923637 23.1430179,129.721533 13.531375,130.292153 C11.9138036,130.388106 5.75180357,130.080314 4.91841071,131.771314 C3.39369643,134.864064 9.73398214,133.328814 10.655125,133.236106 C29.7929821,131.320288 49.7841964,132.42259 68.9851964,132.968642 C84.6887321,133.415033 100.308232,133.692231 115.993196,134.501574 C120.116054,134.71434 124.235196,134.949356 128.355268,135.197814 C129.697982,135.278934 133.077518,136.168934 133.360732,134.024127 C133.622589,132.039241 129.406875,132.487486 128.353875,132.431861 C119.979089,131.991033 111.609875,131.529345 103.237411,131.057923 C83.0850893,129.921783 62.6611607,129.917147 42.4768036,129.920856" id="Fill-41" fill="#89C5CC"></path>
                <path d="M4.60938214,133.360057 C2.81166786,135.14701 3.65434643,141.970807 3.60420357,144.226401 C3.51645357,148.17114 3.330275,152.112635 3.24670357,156.056447 C3.15988214,160.17826 3.28059643,164.319078 3.52434643,168.434864 C3.62648929,170.162947 5.04488214,178.515041 7.27809643,173.735463 C8.27584643,171.599463 7.25395357,165.650369 7.269275,163.230218 C7.29666786,158.825645 7.53391786,154.439614 7.75306071,150.041067 C7.94156071,146.259958 7.948525,142.47514 8.11381071,138.693104 C8.166275,137.487432 8.30881071,129.649406 4.60938214,133.360057" id="Fill-43" fill="#89C5CC"></path>
                <path d="M134.979836,168.595342 C125.613336,169.555337 116.096407,169.10153 106.694157,169.810748 C98.5909786,170.421696 90.4952286,170.671545 82.3711571,170.843519 C63.9747643,171.231967 45.5472643,171.610681 27.2042643,173.143613 C23.0238357,173.49266 18.8485143,173.863493 14.6569429,174.050764 C12.5606929,174.144399 3.76433571,173.190431 3.10922857,175.400134 C1.99355,179.163629 11.4004429,177.674269 13.4293714,177.615399 C17.8911571,177.486535 22.33205,177.16391 26.7813,176.825061 C45.4845857,175.400134 64.2593714,174.974139 83.0025857,174.381733 C93.1964429,174.060035 103.319264,173.314196 113.490371,172.635571 C118.559907,172.297649 123.643371,172.286524 128.712443,171.958801 C130.038907,171.873045 134.733764,172.042238 135.687871,170.974702 C136.343443,170.241842 136.509193,168.452571 134.979836,168.595342" id="Fill-45" fill="#89C5CC"></path>
                <path d="M131.804864,134.000393 C132.12615,142.982904 132.633614,151.957534 132.936793,160.940044 C133.028257,163.641102 132.212043,168.482331 133.716329,170.864471 C136.134793,174.694716 138.022579,170.641044 138.465507,168.254268 C139.863471,160.721253 138.360579,152.399753 137.970114,144.820383 C137.821543,141.92881 138.719471,135.492997 137.321971,132.905044 C135.990864,130.43993 131.685543,130.687461 131.804864,134.000393" id="Fill-47" fill="#89C5CC"></path>
                <path d="M116.079461,146.793494 C119.667925,147.765541 120.192104,155.567411 116.143068,156.14452 C110.116175,157.003463 112.751925,148.401984 116.079461,146.793494 M115.074282,143.69101 C113.979496,143.656708 111.452854,143.354942 110.778246,144.245869 C110.213675,144.991708 110.784282,146.564505 110.718354,147.274651 C110.481104,149.813005 108.417354,151.278723 109.339889,154.27552 C109.966211,156.309541 111.643211,158.220723 113.686996,158.927161 C124.472354,162.654963 124.340961,141.815984 115.074282,143.69101" id="hola-:)" fill="#89C5CC"></path>
                <path d="M17.7018679,145.090767 C17.6749393,145.125069 17.6480107,145.159371 17.6215464,145.193673 C17.6480107,145.159371 17.6749393,145.125069 17.7018679,145.090767 M26.1727607,140.583751 C26.1305107,140.223116 26.0882607,139.862017 26.0460107,139.500918 C31.8936893,142.261308 36.5467607,147.395959 34.6051179,154.287897 C33.1235821,159.54585 27.7708321,161.410678 22.7839393,160.112761 C17.2635821,158.675319 14.6255107,154.125194 16.1140107,148.537662 C16.8006893,145.959907 18.909475,142.49586 21.6352964,141.667048 C22.9041893,141.281381 25.7103321,142.264553 26.1727607,140.583751 M22.7532964,138.400933 C21.2740821,138.500595 19.8343321,139.117105 18.6271893,139.959824 C19.7572607,139.004001 21.2634036,138.434772 22.7532964,138.400933 M22.7955464,135.005027 C19.1416179,135.116741 16.7472964,137.328761 14.5800107,139.985319 C13.8998321,140.81923 11.600225,143.02986 11.8848321,144.153485 C12.1100107,145.041631 12.6991893,146.340475 13.9397607,145.35035 C7.44208214,158.300314 24.2278679,169.345584 34.4751179,160.34036 C44.038475,151.93635 34.5503321,134.611017 22.7955464,135.005027" id="Fill-51" fill="#89C5CC"></path>
                <path d="M19.4755786,147.034536 C19.4755786,148.758911 22.15265,148.758911 22.15265,147.034536 C22.15265,145.310161 19.4755786,145.310161 19.4755786,147.034536" id="Fill-53" fill="#89C5CC"></path>
                <path d="M24.0441036,147.328792 C24.0441036,149.081443 26.7643536,149.081443 26.7643536,147.328792 C26.7643536,145.576141 24.0441036,145.576141 24.0441036,147.328792" id="Fill-55" fill="#89C5CC"></path>
                <path d="M26.1172786,153.483606 C24.8446714,153.586976 20.1864929,153.154491 19.3688857,154.269309 C18.0024929,156.131819 20.1832429,156.196715 21.25435,156.397892 C22.2191357,156.579137 26.4130286,156.476694 27.0040643,155.620069 C27.5263857,154.863106 27.4042786,153.37421 26.1172786,153.483606" id="Fill-57" fill="#89C5CC"></path>
                <path d="M82.2410179,148.653084 C82.0223393,148.743475 82.0223393,148.743475 82.2410179,148.653084 M64.6399464,147.365829 C61.7725179,147.576741 59.3438393,149.226022 56.6022321,149.884251 C53.6758393,150.58698 52.4092679,149.294626 49.7484464,148.448662 C46.980375,147.56886 45.0113393,147.916517 42.7864821,149.80684 C41.5259464,150.878084 38.7601964,153.343662 39.5480893,155.246501 C41.3523036,159.601939 45.4361607,152.515777 47.3569107,152.186199 C50.3534107,151.672131 53.0193393,154.292069 56.4745536,153.542522 C59.6056964,152.863897 62.3839821,150.713991 65.6544107,150.690814 C68.3890536,150.671345 70.9663036,152.167657 73.666125,152.529683 C77.7875893,153.082689 80.4939107,151.619287 84.3038393,150.532746 C87.6076964,149.590829 89.9244821,150.833121 93.0319464,151.877944 C94.4521964,152.355392 99.1911607,154.091355 98.3187679,150.943444 C98.0722321,150.054371 91.827125,148.464423 90.8590893,148.158485 C87.4447321,147.079824 85.2825536,147.500256 82.0302321,148.74023 C79.317875,149.774855 77.036375,150.278725 74.1280893,149.709496 C70.9240536,149.082324 68.0101964,147.109954 64.6399464,147.365829" id="Fill-59" fill="#89C5CC"></path>
            </g>
        </g>
    </g>
</svg>