<?xml version="1.0" standalone="no"?>
<!DOCTYPE svg PUBLIC "-//W3C//DTD SVG 20010904//EN"
 "http://www.w3.org/TR/2001/REC-SVG-20010904/DTD/svg10.dtd">
<svg version="1.0" xmlns="http://www.w3.org/2000/svg"
 width="700.000000pt" height="700.000000pt" viewBox="0 0 700.000000 700.000000"
 preserveAspectRatio="xMidYMid meet">
<metadata>
Created by potrace 1.11, written by Peter Selinger 2001-2013
</metadata>
<g transform="translate(0.000000,700.000000) scale(0.100000,-0.100000)"
fill="#000000" stroke="none">
<path d="M4183 6805 c-33 -14 -42 -27 -858 -1120 -111 -148 -430 -576 -709
-950 -280 -374 -542 -725 -583 -780 -41 -55 -149 -199 -240 -320 -339 -451
-338 -450 -309 -517 14 -33 450 -479 501 -512 25 -17 44 -18 219 -11 105 4
207 8 226 10 19 2 112 6 205 10 94 3 184 8 202 9 20 2 30 -1 28 -8 -5 -14
-310 -1036 -475 -1591 -67 -226 -134 -451 -150 -501 -54 -176 -50 -216 33
-272 112 -76 182 -94 251 -68 49 19 86 56 440 440 15 17 54 58 85 91 31 34
108 117 171 185 160 173 261 282 279 301 9 9 57 60 106 114 104 113 112 122
250 270 56 61 129 139 161 174 32 35 75 80 94 100 30 32 150 162 246 266 31
35 220 238 279 300 22 24 74 81 117 127 42 45 91 99 110 118 18 20 87 94 153
165 66 71 147 159 180 194 33 36 85 92 116 126 31 33 87 93 125 133 97 103
116 146 90 206 -16 38 -481 504 -516 518 -22 9 -260 5 -445 -8 -33 -2 -127 -6
-210 -9 -82 -4 -162 -8 -177 -10 -16 -2 -28 1 -28 7 0 5 36 132 81 281 44 150
125 423 180 607 55 184 111 371 124 415 13 44 33 114 45 155 12 41 25 86 30
100 5 14 18 59 30 100 12 41 30 102 40 135 10 33 33 110 50 170 18 61 41 137
52 170 31 96 33 139 10 177 -27 44 -495 508 -513 509 -8 1 -25 3 -39 4 -14 2
-39 -3 -57 -10z"/>
</g>
</svg>
