<?xml version="1.0" encoding="UTF-8"?>
<svg width="203px" height="187px" viewBox="0 0 203 187" version="1.1" xmlns="http://www.w3.org/2000/svg" xmlns:xlink="http://www.w3.org/1999/xlink">
    <!-- Generator: Sketch 52.6 (67491) - http://www.bohemiancoding.com/sketch -->
    <title>Whiteboard Stuff</title>
    <desc>Created with Sketch.</desc>
    <g id="Symbols" stroke="none" stroke-width="1" fill="none" fill-rule="evenodd" opacity="0.5">
        <g id="Scene/Whiteboard" transform="translate(-477.000000, -137.000000)">
            <g id="Whiteboard-Stuff" transform="translate(477.000000, 137.000000)">
                <path d="M43.82529,44.0225482 C43.9736873,43.999931 44.118307,43.9839791 44.2572443,43.9751792 C47.9274658,43.742355 51.6458881,43.8386322 55.3235251,43.7534639 C62.8535274,43.5789614 70.6806142,43.990454 78.1670502,43.1086842 C79.6886233,42.911501 80.2206872,44.8634292 79.5379954,45.8752658 C78.771879,47.011152 76.320121,46.9532931 75.1850822,47.1213153 C71.862,47.6133475 68.4948881,47.7850728 65.1421438,47.9336545 C61.6206963,48.0896421 58.096468,48.2062856 54.5727032,48.3044144 C51.5207511,48.3886569 44.7480594,49.6652559 41.9245982,48.3877312 C39.7243803,47.3922556 39.7757004,46.2868884 40.6737441,45.4305033 C40.1292677,44.2337836 40.2189839,42.2740235 40.1021402,41.3334802 C39.6136425,37.3921312 39.3193388,33.5012351 39.3123868,29.5260965 C39.2984826,21.7396757 39.3142406,13.6528515 41.4679872,6.11591832 C40.6054689,5.73821535 40.0849918,5.18138119 40.0873091,4.37876238 C40.0988959,-0.387886139 57.5851676,0.750314356 61.131179,0.655888614 C65.4891904,0.542022277 69.8481288,0.527210396 74.2070671,0.550816832 C77.0875352,0.566091584 80.9834667,-0.0555445545 83.8518845,0.610990099 C89.4367018,1.90749257 89.083074,11.4819851 89.1975511,16.1116238 C89.4028685,24.4159975 89.2837566,33.1462129 88.6089438,41.431146 C88.3762817,44.2916906 86.2953,47.9173614 83.921405,43.9741609 C82.5977338,41.7755223 83.1877315,36.6395025 83.1858776,34.210354 C83.179389,25.5745644 84.5327224,16.6777153 83.2382498,8.08636139 C82.813711,5.2697896 82.9077954,5.0795495 80.0421584,5.13879703 C77.7693,5.1860099 75.4964416,5.26145792 73.2235831,5.30913366 C68.594905,5.40633663 63.9643731,5.46975 59.3375489,5.63916089 C57.5805329,5.70396287 51.2662132,6.80698515 46.3418411,6.80281931 C46.3441584,6.84216337 46.3483297,6.88150743 46.3492566,6.92177723 C46.4169233,10.2512104 44.7845808,14.2920767 44.5625785,17.7950866 C44.0286607,26.2202698 44.6659324,34.8426361 43.8771059,43.2252351 C43.8532125,43.4794489 43.840075,43.750041 43.82529,44.0225482 Z" id="Wireframy-Stuff" fill="#89C5CC"></path>
                <path d="M110.119938,46.4583453 C109.547256,45.8739845 109.031814,45.0158482 108.700846,43.9451851 C107.512971,40.101502 107.400811,35.9537124 107.312752,31.9679277 C107.12465,23.449212 107.21812,14.9155287 107.166981,6.39381652 C106.39427,5.35599955 106.853113,4.16905277 107.817332,3.34091238 C110.422499,1.10478119 117.928401,1.67226139 121.234798,1.49729604 C125.993711,1.24549406 130.755869,1.18763515 135.520807,1.17004604 C140.566145,1.14458812 145.618435,1.23531089 150.661455,1.39037277 C152.532022,1.44776881 165.54117,1.77501881 159.726471,4.92902376 C159.393591,5.10960058 159.018887,5.26047784 158.610076,5.38571889 C158.851782,6.81883022 158.881108,8.29848443 158.842216,9.01127079 C158.595187,13.5464837 158.489052,18.0900282 158.287442,22.6275554 C158.063123,27.6922931 157.849,32.7565678 157.674735,37.8236198 C157.582041,40.5022559 158.498785,46.730652 156.378872,48.6645282 C154.950268,49.9681971 153.974086,49.7069565 153.316278,48.8215091 C148.243139,50.294693 136.536783,49.3453575 134.404585,49.3463839 C130.584199,49.3477725 109.836024,51.8037676 109.801727,47.3838097 C109.799066,47.0409431 109.910483,46.7335998 110.119938,46.4583453 Z M113.490912,44.8951141 C119.279269,43.6591418 130.071004,44.4848831 132.341679,44.4765151 C136.570845,44.4598517 140.801403,44.5186364 145.027325,44.6875844 C146.344513,44.7402038 149.56618,44.4866256 152.110757,44.7686518 C152.08801,44.5383356 152.072679,44.3278221 152.0635,44.1459787 C151.832691,39.584845 152.083892,34.9760356 152.231276,30.414902 C152.379123,25.8176644 152.60576,21.2241297 152.782805,16.6278178 C152.873955,14.2637229 152.276867,9.32879043 152.923741,5.92641279 C149.851707,5.86802366 146.630108,5.49675197 144.558015,5.49650396 C139.693894,5.49604109 134.833017,5.44095941 129.96936,5.53723663 C124.716387,5.64138267 119.406871,5.70294455 114.190976,6.39586287 C113.905074,6.433897 113.561539,6.50724149 113.181455,6.59617078 C113.975646,9.91765431 113.011677,15.259181 113.008339,18.3363683 C112.998606,26.9587347 113.316083,35.534351 113.50935,44.1113559 C113.515686,44.3923619 113.509126,44.6534157 113.490912,44.8951141 Z" id="Wireframy-Stuff" fill="#89C5CC"></path>
                <path d="M61.2840779,48.1234317 C58.1565801,49.9503847 59.8431486,57.2586594 60.9267422,59.7863995 C62.7078587,63.9425208 66.3220002,67.1946545 70.2216395,69.3520975 C78.1038792,73.712345 89.4658541,72.5542411 95.4270094,80.113855 C95.4886509,80.1920802 97.54924,82.231954 98.0182719,79.5903475 C98.4034158,77.4222584 94.5566121,74.1113401 93.0660916,73.0245183 C88.827192,69.9343896 83.3906852,68.9378277 78.4876326,67.394152 C73.2587605,65.7477188 67.5205345,62.7126718 65.3283199,57.3220728 C64.5520071,55.4127287 66.0318678,45.3364837 61.2840779,48.1234317" id="Fill-135" fill="#C1DEE2"></path>
                <path d="M132.779566,51.636995 C129.913465,52.4271163 131.809059,56.3707797 131.804424,58.3453886 C131.798862,60.8087896 131.011426,63.3869827 129.493097,65.352797 C125.64305,70.3383837 118.104241,71.0854579 112.452221,72.5148045 C108.348191,73.5534876 98.5291089,75.7803614 98.144892,81.330651 C97.7157185,87.5289604 106.384467,79.9860099 107.11675,79.6768119 C115.219139,76.7047153 125.701447,76.130755 131.955052,69.5885322 C134.536582,66.8881411 136.062326,63.2837624 136.304721,59.5636658 C136.441445,57.4691733 136.464618,50.63025 132.779566,51.636995" id="Fill-137" fill="#C1DEE2"></path>
                <path d="M94.3935632,85.60087 C106.322362,82.4584369 117.4336,90.8165037 118.839769,102.840048 C120.323801,115.528739 110.760554,125.743845 98.1485998,126.30392 C87.0545107,126.796415 73.6319468,118.85308 73.5610358,106.615689 C73.4942961,95.1475903 84.4692733,88.2105384 94.3935632,85.60087 Z M100.13457,94.1542686 C98.0943737,95.3433849 97.7203532,92.2583478 96.2761797,91.851021 C94.8259811,91.4427686 92.4956523,92.9679295 91.2878486,93.8571052 C89.2369925,95.3674542 83.5557733,104.158306 80.8022961,99.3842512 C72.4463897,113.813338 93.2784537,124.611662 105.124292,119.15117 C118.134367,113.154209 115.601965,91.2293849 100.207335,91.1150557 C100.852486,91.9921968 101.434604,93.3919196 100.13457,94.1542686 Z" id="Fill-139" fill="#89C5CC"></path>
                <path d="M89.2889475,102.776589 C89.2889475,105.408938 93.4458128,105.408938 93.4458128,102.776589 C93.4458128,100.174326 89.2889475,100.062774 89.2889475,102.776589" id="Fill-141" fill="#89C5CC"></path>
                <path d="M96.6026482,102.282566 C96.6026482,105.506927 101.697114,105.506927 101.697114,102.282566 C101.697114,99.0947715 96.6026482,98.9586874 96.6026482,102.282566" id="Fill-143" fill="#89C5CC"></path>
                <path d="M91.3689096,109.796078 C87.2027749,112.246519 99.1167429,117.115462 99.5871653,112.140058 C99.7901653,109.993261 97.7110374,110.572313 96.3252612,110.414474 C94.9992726,110.263115 92.626768,109.063816 91.3689096,109.796078" id="Fill-145" fill="#89C5CC"></path>
                <path d="M89.5618852,127.181292 C89.7431021,133.440238 89.6559696,139.69548 90.8429171,145.867406 C91.0686272,147.039396 91.2252801,151.291332 92.1517573,152.161993 C94.4306409,154.304161 94.468182,150.198493 94.5567048,148.625193 C94.8727916,142.989735 94.2814034,137.178849 94.1507048,131.531819 C94.1224331,130.316319 94.444545,127.798762 93.8707687,126.622144 C92.960513,124.754458 89.4733623,124.199938 89.5618852,127.181292" id="Fill-147" fill="#C1DEE2"></path>
                <path d="M85.1061742,122.106464 C75.9730281,132.357211 63.3962975,131.602268 50.7259459,132.499776 C44.0315806,132.974219 37.2625966,133.9481 31.8756811,138.278261 C29.3701605,140.292677 27.2099253,142.815788 25.7583363,145.691145 C25.1238454,146.948303 22.1140692,154.201496 26.6342952,152.480541 C28.237439,151.870476 29.8155555,147.073741 30.8523386,145.655041 C32.8271856,142.952798 35.3540258,140.722221 38.3851217,139.272046 C44.2322632,136.474914 51.2139801,136.52259 57.5537906,136.167568 C64.1809527,135.796808 71.2942952,135.450117 77.3861491,132.568281 C80.2517861,131.212531 82.9403774,129.521662 85.2466057,127.342927 C86.0706559,126.563914 87.8378683,125.241028 87.9694938,124.05006 C88.1201217,122.688756 86.811745,120.196657 85.1061742,122.106464" id="Fill-149" fill="#C1DEE2"></path>
                <path d="M38.9999614,153.569492 C30.4206623,153.856009 21.8524865,154.203162 13.2852377,154.745648 C11.5296121,154.856737 5.67598196,154.502177 7.16696598,158.099613 C8.36179247,160.983301 15.5006258,159.075808 17.8620071,158.936021 C26.7893724,158.406034 35.7533518,158.221811 44.6617148,157.418729 C46.6629797,157.238672 55.7085299,157.310417 51.9734226,153.763898 C50.1964774,152.075806 41.4549637,153.485712 38.9999614,153.569492" id="Fill-151" fill="#89C5CC"></path>
                <path d="M1.71956758,157.707329 C-0.984781735,161.258941 0.257782192,169.891027 0.462172603,174.160552 C0.660074429,178.298159 -0.143583105,185.863327 5.25723653,186.504867 C3.54239635,186.279911 6.55912466,186.609013 7.04993973,186.635396 C8.1465105,186.694181 9.24817945,186.713159 10.3461406,186.725193 C12.8827137,186.752966 15.4206772,186.719176 17.9567868,186.66826 C23.7019648,186.553468 29.461974,186.386372 35.1997365,186.068842 C37.6116361,185.935072 50.6958667,186.046624 51.2140265,183.541102 C51.8758621,180.339421 39.3306475,182.150636 37.0851338,182.252931 C31.6157205,182.503807 26.1379648,182.556575 20.6639169,182.62832 C17.9507616,182.663961 15.2348256,182.690807 12.5216703,182.637577 C11.4014626,182.615822 6.96466119,183.075916 6.28382329,182.328379 C5.70309498,181.691931 6.15636895,175.842164 6.14385525,174.947433 C6.1039968,172.030419 6.1072411,169.106461 6.21105845,166.190834 C6.28104247,164.227797 7.3423895,160.492889 6.47755388,158.64881 C5.63635525,156.856109 3.18459726,156.244193 1.71956758,157.707329" id="Fill-153" fill="#89C5CC"></path>
                <path d="M45.894963,157.873223 C46.051616,164.370547 46.1002804,170.999326 47.6348306,177.353624 C48.1455749,179.468482 48.8611731,183.829193 50.985721,184.923883 C53.2154767,186.073193 55.1407324,184.432777 55.2862621,182.223492 C55.4697963,179.445802 53.9825201,175.799302 53.6775566,172.949403 C53.3211479,169.624136 53.1139767,166.295628 52.992084,162.954161 C52.8998534,160.441232 53.6636525,156.67346 51.2679744,155.052948 C49.1160817,153.597218 45.824979,155.063131 45.894963,157.873223" id="Fill-155" fill="#89C5CC"></path>
                <path d="M62.9680509,156.286777 C60.2998523,158.944584 61.4923614,167.359584 61.82606,170.774649 C62.0703089,173.276005 64.8080281,185.580513 68.9102039,179.164191 C70.7246902,176.325864 68.4193888,168.820869 68.4356103,165.511339 C68.4462701,163.403424 69.1924573,160.738211 68.8323409,158.713149 C68.3563568,156.036827 65.3882929,153.869664 62.9680509,156.286777" id="Fill-157" fill="#89C5CC"></path>
                <path d="M125.731505,178.249193 C126.319527,178.885457 126.579839,179.791531 126.198055,180.678289 C125.280847,182.807497 121.905393,182.347866 120.071905,182.500613 C113.953169,183.010698 107.806163,183.350908 101.665644,183.404601 C95.7327607,183.456905 89.7980233,183.304621 83.8656032,183.362943 C78.9231557,183.411544 73.7749274,184.413198 68.8783635,184.212311 C66.8339959,184.128069 64.6510507,183.458757 65.1692105,180.816688 C65.6285096,178.472707 67.98711,178.454193 69.9100484,178.258398 C75.7025005,177.6687 81.4981968,177.459945 87.320311,177.480774 C99.5512927,177.523358 111.772542,177.459945 124.00306,177.396069 C124.505741,177.437486 124.979314,177.629644 125.369313,177.922453 C124.72962,177.146054 125.037105,175.995982 124.917672,174.873559 C124.596024,171.84777 124.388853,168.873822 123.815076,165.848495 C123.356241,163.428604 123.010492,159.318307 120.768686,157.795923 C118.320636,156.133752 112.885983,156.683643 109.964266,156.608195 C102.102882,156.405458 94.196542,156.96368 86.3708457,157.675114 C82.8021242,157.999586 79.1893731,158.24676 75.6609735,158.887374 C73.6963228,159.24471 67.931679,162.128861 66.3623685,160.354213 C62.583695,156.080522 79.1884461,154.325777 81.4427658,154.092953 C89.4570945,153.266265 97.4811562,152.646017 105.539515,152.56918 C110.981583,152.526596 120.294556,152.062799 124.295695,156.527656 C126.698789,159.208606 127.541841,163.625324 128.479442,166.970495 C129.199674,169.539893 131.153202,174.172772 129.765108,176.826413 C129.137106,178.027101 128.125814,179.050973 126.591263,178.625594 C126.232724,178.526252 125.951673,178.399168 125.731505,178.249193 Z" id="Wireframy-Stuff" fill="#89C5CC"></path>
                <path d="M166.707076,144.363167 C167.055606,144.811226 167.055606,144.811226 166.707076,144.363167 M112.472706,117.886929 C107.605341,120.747937 116.614277,129.143033 118.908918,130.441387 C124.073368,133.363031 131.169562,133.803684 136.93606,134.625281 C144.233864,135.665815 152.176355,136.04861 159.189587,138.440266 C162.178508,139.459508 164.077345,141.049471 166.034117,143.493432 C167.02548,144.731612 169.412816,150.068981 171.586955,148.805343 C175.964432,146.260939 164.169113,135.582961 161.569971,134.435041 C155.661651,131.824909 148.677617,131.094036 142.360517,130.08081 C136.486494,129.137942 130.485944,128.437154 124.756987,126.775447 C121.606779,125.861739 119.367754,124.387956 117.551877,121.567219 C116.420083,119.809234 115.491752,116.120612 112.472706,117.886929" id="Line" fill="#C1DEE2"></path>
                <path d="M138.586107,179.696019 C137.130387,176.905287 136.461124,171.5437 136.331278,170.484799 C135.771405,165.922739 135.72923,161.414373 135.806166,156.824078 C135.851283,154.304331 138.735712,153.102488 140.604717,154.51615 C143.104227,153.469539 147.333372,153.312257 149.606041,153.082782 C153.340685,152.705542 157.106845,152.565292 160.852612,152.341263 C169.596443,151.818681 178.331004,150.875812 187.091057,150.681406 C189.712445,150.626787 193.223233,150.39026 195.319509,152.325062 C197.706381,154.528329 198.181902,159.993914 198.897036,162.938701 C199.673813,166.136678 200.60168,169.390664 200.926573,172.671495 C201.002717,173.439991 201.208146,174.75994 201.115704,175.947464 C202.207104,176.096125 202.859207,177.154164 202.748706,178.309916 C202.544316,180.455324 199.572081,180.747859 197.83314,181.087143 C192.050421,182.216549 185.868654,181.959656 180.006218,182.125364 C167.741403,182.470666 154.625193,184.451755 142.406261,183.272359 C140.31499,183.070418 138.068295,182.331624 138.586107,179.696019 Z M143.001363,177.171515 C143.487195,177.167691 143.967067,177.176672 144.414478,177.168938 C150.583268,177.061089 156.747423,176.874089 162.912042,176.637099 C169.199017,176.395943 175.485992,176.126552 181.777601,176.054344 C186.77882,175.997478 191.928963,176.429034 196.965748,176.234608 C195.883097,173.399762 196.046902,168.937194 195.469673,166.00152 C194.896361,163.08682 194.678529,159.630097 193.506413,156.892676 C192.187376,153.813193 191.040287,154.525552 187.605509,154.758839 C184.073402,154.998607 180.545929,155.335577 177.017529,155.625797 C169.261354,156.263634 161.498689,156.667258 153.736952,157.207891 C149.711124,157.488139 145.859075,158.637471 141.921735,159.08818 C141.862459,160.493473 141.664343,161.911571 141.686677,162.93722 C141.75249,165.962083 142.050501,168.965655 142.313289,171.978022 C142.420104,173.203113 142.925941,175.317617 143.001363,177.171515 Z" id="Wireframy-Stuff" fill="#89C5CC"></path>
            </g>
        </g>
    </g>
</svg>