<?xml version="1.0" encoding="UTF-8"?>
<svg width="221px" height="361px" viewBox="0 0 221 361" version="1.1" xmlns="http://www.w3.org/2000/svg" xmlns:xlink="http://www.w3.org/1999/xlink">
    <!-- Generator: Sketch 52.6 (67491) - http://www.bohemiancoding.com/sketch -->
    <title>logo-square</title>
    <desc>Created with Sketch.</desc>
    <g id="Page-1" stroke="none" stroke-width="1" fill="none" fill-rule="evenodd">
        <g id="logo-square" transform="translate(0.000000, -1.000000)">
            <path d="M26.11,228.39 C27.4971699,229.881199 29.4767022,230.676677 31.51,230.56 L75.76,228.47 L39.81,349 C38.8587649,351.890761 39.9657977,355.060155 42.51,356.73 C44.8244579,358.451517 47.3395643,359.885362 50,361 C53.09,362.1 56.94,362.79 61.85,357.65 L219.2,188 C221.250597,185.26848 221.008823,181.45099 218.63,179 L218.57,178.94 L218.51,178.88 L218.45,178.82 L218.39,178.76 L218.33,178.7 L218.27,178.64 L218.21,178.58 L218.15,178.52 L218.09,178.46 L218.03,178.4 L217.97,178.34 L217.91,178.28 L217.85,178.22 L217.79,178.16 L217.73,178.1 L217.67,178.04 L217.61,177.98 L217.55,177.92 L217.49,177.86 L217.43,177.8 L217.37,177.74 L217.31,177.68 L217.25,177.62 L217.19,177.56 L217.13,177.5 L216.95,177.32 L216.89,177.26 L216.83,177.2 L216.77,177.14 L216.71,177.08 L216.65,177.02 L216.59,176.96 L216.53,176.9 L216.47,176.84 L216.41,176.78 L216.35,176.72 L216.29,176.66 L216.23,176.6 L216.17,176.54 L216.11,176.48 L216.05,176.42 L215.99,176.36 L215.93,176.3 L215.87,176.24 L215.81,176.18 L215.75,176.12 L215.69,176.06 L215.63,176 L215.57,175.94 L215.51,175.88 L215.45,175.82 L215.39,175.76 L215.33,175.7 L215.27,175.64 L215.21,175.58 L215.15,175.52 L215.09,175.46 L215.03,175.4 L214.97,175.34 L214.91,175.28 L214.85,175.22 L214.79,175.16 L214.73,175.1 L214.67,175.04 L214.61,174.98 L214.49,174.86 L214.43,174.8 L214.37,174.74 L214.25,174.62 L214.19,174.56 L214.13,174.5 L214.07,174.44 L214.01,174.38 L213.95,174.32 L213.89,174.26 L213.83,174.2 L213.77,174.14 L213.71,174.08 L213.65,174.02 L213.59,173.96 L213.53,173.9 L213.47,173.84 L213.41,173.78 L213.35,173.72 L213.29,173.66 L213.23,173.6 L213.17,173.54 L213.11,173.48 L213.05,173.42 L212.99,173.36 L212.87,173.24 L212.81,173.18 L212.75,173.12 L212.69,173.06 L212.63,173 L212.57,172.94 L212.51,172.88 L212.45,172.82 L212.39,172.76 L212.33,172.7 L212.27,172.64 L212.21,172.58 L212.15,172.52 L212.09,172.46 L212.03,172.4 L211.97,172.34 L211.91,172.28 L211.85,172.22 L211.79,172.16 L211.73,172.1 L211.67,172.04 L211.61,171.98 L211.55,171.92 L211.49,171.86 L211.43,171.8 L211.37,171.74 L211.31,171.68 L211.25,171.62 L211.19,171.56 L211.13,171.5 L211.07,171.44 L211.01,171.38 L210.95,171.32 L210.89,171.26 L210.83,171.2 L210.77,171.14 L210.71,171.08 L210.65,171.02 L210.59,170.96 L210.53,170.9 L210.47,170.84 L210.41,170.78 L210.35,170.72 L210.29,170.66 L210.23,170.6 L210.17,170.54 L210.11,170.48 L210.05,170.42 L209.99,170.36 L209.93,170.3 L209.87,170.24 L209.81,170.18 L209.75,170.12 L209.69,170.06 L209.57,169.94 L209.51,169.88 L209.45,169.82 L209.33,169.7 L209.27,169.64 L209.21,169.58 L209.15,169.52 L209.09,169.46 L209.03,169.4 L208.97,169.34 L208.91,169.28 L208.85,169.22 L208.79,169.16 L208.73,169.1 L208.67,169.04 L208.61,168.98 L208.55,168.92 L208.49,168.86 L208.43,168.8 L208.37,168.74 L208.31,168.68 L208.25,168.62 L208.19,168.56 L208.13,168.5 L208.07,168.44 L208.01,168.38 L207.95,168.32 L207.89,168.26 L207.83,168.2 L207.77,168.14 L207.71,168.08 L207.65,168.02 L207.59,167.96 L207.53,167.9 L207.47,167.84 L207.41,167.78 L207.35,167.72 L207.29,167.66 L207.23,167.6 L207.17,167.54 L207.11,167.48 L207.05,167.42 L206.99,167.36 L206.93,167.3 L206.87,167.24 L206.81,167.18 L206.75,167.12 L206.69,167.06 L206.63,167 L206.57,166.94 L206.51,166.88 L206.45,166.82 L206.39,166.76 L206.33,166.7 L206.27,166.64 L206.21,166.58 L206.15,166.52 L206.09,166.46 L206.03,166.4 L205.97,166.34 L205.91,166.28 L205.85,166.22 L205.79,166.16 L205.73,166.1 L205.67,166.04 L205.61,165.98 L205.55,165.92 L205.49,165.86 L205.43,165.8 L205.37,165.74 L205.31,165.68 L205.25,165.62 L205.19,165.56 L205.13,165.5 L205.07,165.44 L205.01,165.38 L204.95,165.32 L204.89,165.26 L204.83,165.2 L204.77,165.14 L204.71,165.08 L204.65,165.02 L204.59,164.96 L204.53,164.9 L204.47,164.84 L204.41,164.78 L204.35,164.72 L204.29,164.66 L204.23,164.6 L204.17,164.54 L204.11,164.48 L204.05,164.42 L203.99,164.36 L203.81,164.18 L203.75,164.12 L203.69,164.06 L203.63,164 L203.57,163.94 L203.51,163.88 L203.45,163.82 L203.39,163.76 L203.33,163.7 L203.27,163.64 L203.21,163.58 L203.15,163.52 L203.09,163.46 L203.03,163.4 L202.97,163.34 L202.91,163.28 L202.79,163.16 L202.73,163.1 L202.67,163.04 L202.61,162.98 L202.49,162.86 L202.43,162.8 L202.37,162.74 L202.31,162.68 L202.25,162.62 L202.19,162.56 L202.13,162.5 L202.07,162.44 L202.01,162.38 L201.95,162.32 L201.89,162.26 L201.83,162.2 L201.77,162.14 L201.71,162.08 L201.65,162.02 L201.59,161.96 L201.53,161.9 L201.47,161.84 L201.41,161.78 L201.35,161.72 L201.29,161.66 L201.23,161.6 L201.17,161.54 L201.11,161.48 L201.05,161.42 L200.99,161.36 L200.93,161.3 L200.87,161.24 L200.81,161.18 L200.75,161.12 L200.69,161.06 L200.63,161 L200.57,160.94 L200.51,160.88 L200.45,160.82 L200.39,160.76 L200.33,160.7 L200.27,160.64 L200.21,160.58 L200.15,160.52 L200.09,160.46 L200.03,160.4 L199.97,160.34 L199.91,160.28 L199.85,160.22 L199.79,160.16 L199.73,160.1 L199.67,160.04 L199.61,159.98 L199.55,159.92 L199.49,159.86 L199.43,159.8 L199.37,159.74 L199.19,159.56 L199.13,159.5 L199.07,159.44 L199.01,159.38 L198.95,159.32 L198.89,159.26 L198.83,159.2 L198.77,159.14 L198.71,159.08 L198.65,159.02 L198.59,158.96 L198.53,158.9 L198.47,158.84 L198.41,158.78 L198.35,158.72 L198.29,158.66 L198.23,158.6 L198.17,158.54 L198.11,158.48 L198.05,158.42 L197.99,158.36 L197.93,158.3 L197.87,158.24 L197.81,158.18 L197.75,158.12 L197.69,158.06 L197.63,158 L197.57,157.94 L197.51,157.88 L197.45,157.82 L197.39,157.76 L197.33,157.7 L197.27,157.64 L197.21,157.58 L197.15,157.52 L197.09,157.46 L197.03,157.4 L196.97,157.34 L196.91,157.28 L196.85,157.22 L196.79,157.16 L196.73,157.1 L196.67,157.04 L196.61,156.98 L196.49,156.86 L196.43,156.8 L196.37,156.74 L196.31,156.68 L196.25,156.62 L196.19,156.56 L196.13,156.5 L196.07,156.44 L195.95,156.32 L195.89,156.26 L195.83,156.2 L195.77,156.14 L195.65,156.02 L195.59,155.96 L195.53,155.9 L195.47,155.84 L195.41,155.78 L195.35,155.72 L195.29,155.66 L195.23,155.6 L195.17,155.54 L195.11,155.48 L195.05,155.42 L194.99,155.36 L194.93,155.3 L194.87,155.24 L194.81,155.18 L194.75,155.12 L194.69,155.06 L194.63,155 C193.24283,153.508801 191.263298,152.713323 189.23,152.83 L144.98,154.92 L180.79,34.2 C181.592719,31.7642779 180.932369,29.0840337 179.09,27.3 L179.03,27.24 L178.97,27.18 L178.91,27.12 L178.85,27.06 L178.79,27 L178.73,26.94 L178.67,26.88 L178.61,26.82 L178.55,26.76 L178.49,26.7 L178.43,26.64 L178.37,26.58 L178.31,26.52 L178.25,26.46 L178.19,26.4 L178.13,26.34 L178.07,26.28 L178.01,26.22 L177.95,26.16 L177.71,25.92 L177.65,25.86 L177.59,25.8 L177.29,25.5 L177.23,25.44 L177.17,25.38 L176.81,25.02 L176.75,24.96 L176.69,24.9 L176.63,24.84 L176.57,24.78 L176.39,24.6 L176.33,24.54 L176.27,24.48 L176.15,24.36 L176.09,24.3 L176.03,24.24 L175.97,24.18 L175.79,24 L175.73,23.94 L175.67,23.88 L175.61,23.82 L175.55,23.76 L175.49,23.7 L175.37,23.58 L175.31,23.52 L175.13,23.34 L175,23.2 L174.94,23.14 L174.88,23.08 L174.8,23 L174.74,22.94 L174.62,22.82 L174.56,22.76 L174.5,22.7 L174.26,22.46 L174.2,22.4 L174.14,22.34 L174.08,22.28 L173.96,22.16 L173.9,22.1 L173.78,21.98 L173.6,21.8 L173.54,21.74 L173.36,21.56 L173.3,21.5 L173.18,21.38 L173.12,21.32 L173.06,21.26 L172.88,21.08 L172.82,21.02 L172.7,20.9 L172.58,20.78 L172.52,20.72 L172.46,20.66 L172.4,20.6 L172.28,20.48 L172.22,20.42 L172.16,20.36 L172.1,20.3 L171.92,20.12 L171.86,20.06 L171.8,20 L171.56,19.76 L171.5,19.7 L171.44,19.64 L171.32,19.52 L171.2,19.4 L171.14,19.34 L171.08,19.28 L171.02,19.22 L170.9,19.1 L170.78,18.98 L170.66,18.86 L170.6,18.8 L170.42,18.62 L170.18,18.38 L170.12,18.32 L170.06,18.26 L170,18.2 L169.82,18.02 L169.7,17.9 L169.64,17.84 L169.58,17.78 L169.52,17.72 L169.46,17.66 L169.4,17.6 L169.34,17.54 L169.28,17.48 L169.22,17.42 L169.16,17.36 L169.1,17.3 L169.04,17.24 L168.98,17.18 L168.8,17 L168.74,16.94 L168.56,16.76 L168.5,16.7 L168.44,16.64 L168.38,16.58 L168.32,16.52 L168.26,16.46 L168.2,16.4 L168.14,16.34 L168.08,16.28 L168,16.2 L167.88,16.08 L167.8,16 L167.74,15.94 L167.68,15.88 L167.62,15.82 L167.5,15.7 L167.44,15.64 L167.38,15.58 L167.32,15.52 L167.26,15.46 L167.2,15.4 L167.14,15.34 L167.08,15.28 L167.02,15.22 L166.96,15.16 L166.9,15.1 L166.84,15.04 L166.78,14.98 L166.72,14.92 L166.66,14.86 L166.6,14.8 L166.54,14.74 L166.48,14.68 L166.42,14.62 L166.36,14.56 L166.3,14.5 L166.24,14.44 L166.18,14.38 L166.12,14.32 L166.06,14.26 L166,14.2 L165.94,14.14 L165.88,14.08 L165.82,14.02 L165.76,13.96 L165.7,13.9 L165.64,13.84 L165.58,13.78 L165.1,13.3 L165.04,13.24 L164.98,13.18 L164.86,13.06 L164.8,13 L164.74,12.94 L164.56,12.76 L164.5,12.7 L164.44,12.64 L164.38,12.58 L164.32,12.52 L164.14,12.34 L164.08,12.28 L164.02,12.22 L163.96,12.16 L163.66,11.86 L163.6,11.8 L163.54,11.74 L163.48,11.68 L163.42,11.62 L163.24,11.44 L163.18,11.38 L163.12,11.32 L163.06,11.26 L163,11.2 L162.82,11.02 L162.76,10.96 L162.7,10.9 L162.64,10.84 L162.4,10.6 L162.34,10.54 L162.22,10.42 L162.16,10.36 L162.1,10.3 L161.98,10.18 L161.92,10.12 L161.83,10 L161.65,9.82 L161.59,9.76 L161.53,9.7 L161.47,9.64 L161.35,9.52 L161.29,9.46 L161.23,9.4 L161.17,9.34 L161,9.2 L160.94,9.14 L160.88,9.08 L160.8,9 L160.74,9 L160.68,8.94 L160.62,8.88 L160.56,8.82 L160.5,8.76 L160.44,8.7 L160.38,8.64 L160.32,8.58 L160.26,8.52 L160.2,8.46 L160.14,8.4 L160.08,8.34 L160,8.23 L160,8.17 L159.94,8.11 L159.83,8 L159.77,8 L159.71,7.94 L159.65,7.88 L159.59,7.82 L159.53,7.76 L159.47,7.7 L159.41,7.64 L159.35,7.58 L159.29,7.52 L159.17,7.4 L159.11,7.34 L159,7.27 L158.88,7.15 L158.82,7.09 L158.81,7 L158.75,7 L158.69,6.94 L158.63,6.88 L158.57,6.82 L158.51,6.76 L158.45,6.7 L158.39,6.64 L158.33,6.58 L158.27,6.52 L158.09,6.34 L158,6.24 L158,6.18 L157.94,6.12 L157.88,6.06 L157.78,6 L157.72,5.94 L157.66,5.88 L157.6,5.82 L157.54,5.76 L157.48,5.7 L157.42,5.64 L157.36,5.58 L157.3,5.52 L157.24,5.46 L157.18,5.4 L157.12,5.34 L157.06,5.28 L157,5.21 L156.94,5.15 L156.88,5.09 L156.82,5 L156.76,5 L156.7,4.94 L156.64,4.88 L156.58,4.82 L156.52,4.76 L156.46,4.7 L156.4,4.64 L156.34,4.58 L156.28,4.52 L156.22,4.46 L156.16,4.4 L156.1,4.34 L156,4.25 L156,4.19 L155.94,4.13 L155.88,4.07 L155.79,4 L155.73,3.94 L155.67,3.88 L155.61,3.82 L155.55,3.76 L155.49,3.7 L155.37,3.58 L155.31,3.52 L155.25,3.46 L155.19,3.4 L155.07,3.28 L155,3.22 L154.94,3.16 C153.526929,1.66610197 151.522658,0.878032596 149.470529,1.00943073 C147.418399,1.14082886 145.531004,2.1780821 144.32,3.84 L1.4,195.23 C-0.650596871,197.96152 -0.408822515,201.77901 1.97,204.23" id="Path" fill="#27223E"></path>
            <path d="M189.09,152.68 L122.79,155.81 C120.528453,155.904951 118.360577,154.900476 116.970898,153.113746 C115.581219,151.327016 115.141282,148.978589 115.79,146.81 L156.59,10 C158.82,2.54 148.99,-2.4 144.33,3.84 L1.4,195.23 C-0.185435727,197.395695 -0.392959552,200.277235 0.865784714,202.647764 C2.12452898,205.018292 4.62787967,206.460365 7.31,206.36 L73.61,203.23 C75.8715474,203.135049 78.0394226,204.139524 79.4291017,205.926254 C80.8187807,207.712984 81.258718,210.061411 80.61,212.23 L39.81,349 C37.58,356.46 47.41,361.4 52.07,355.16 L195,163.81 C196.585436,161.644305 196.79296,158.762765 195.534215,156.392236 C194.275471,154.021708 191.77212,152.579635 189.09,152.68 Z" id="Path" fill="#F8E71C"></path>
        </g>
    </g>
</svg>