<svg xmlns="http://www.w3.org/2000/svg" viewBox="0 0 560.56 547.43"><defs><style>.cls-1{fill:#fff;}.cls-2{fill:#27223e;}.cls-3{fill:#4c3f85;}</style></defs><title>logo-stacked-white</title><g id="Layer_2" data-name="Layer 2"><g id="Layer_1-2" data-name="Layer 1"><g id="logo-stacked-white"><path class="cls-1" d="M13.86,536.44H62.51v9.66H0v-6.16l48-87.78H.7V442.5H61.81v6.16Z"/><path class="cls-1" d="M152.81,546.1l-10.29-33.53H104.79L94.57,546.1H83.86l32.27-103.6h15.33l32.27,103.6Zm-45.08-43.05h31.92l-16-52.22Z"/><path class="cls-1" d="M191.24,443.69a129.59,129.59,0,0,1,22.89-2.31q19.18,0,28.7,8.68t9.52,26.81q0,35.28-39.55,35.28-5.81,0-10.78-.49V546.1H191.24Zm43.47,53q6.93-6.26,6.93-19.5,0-13.86-6.51-20.2t-20.3-6.33a83.28,83.28,0,0,0-12.81,1v50.68a84.93,84.93,0,0,0,11.13.63Q227.78,502.91,234.71,496.65Z"/><path class="cls-1" d="M289.59,534.9q-11.83-12.53-11.83-40.39,0-27.23,12.32-40.28t35.42-13.05a76.33,76.33,0,0,1,19.11,2.31v17.57a68.18,68.18,0,0,0-17.5-2.24q-9.38,0-15.43,3.36t-9.14,11.16q-3.08,7.81-3.08,20.9,0,13.51,3,21.28t9,11q6,3.26,15.51,3.26,7.35,0,17.64-3.29v17.57a50.18,50.18,0,0,1-9.56,2.45,66.61,66.61,0,0,1-10.88.91Q301.42,547.43,289.59,534.9Z"/><path class="cls-1" d="M447.65,442.5h25.48V546.1H453.81V472l-22.89,59.15H414.33l-22.89-57.47V546.1H372.12V442.5H397.6L423,508.09Z"/><path class="cls-1" d="M510.23,546.38a63.1,63.1,0,0,1-12-3v-17.5a78.22,78.22,0,0,0,24.15,4.06q17.29,0,17.29-12.25a10.29,10.29,0,0,0-5.53-9.76,42.26,42.26,0,0,0-8.4-3.67l-7-2.31q-10.85-3.71-17-11t-6.12-18.48a31.25,31.25,0,0,1,4.34-16.8,27.66,27.66,0,0,1,13-10.74q8.64-3.74,21.38-3.75a90.13,90.13,0,0,1,11.38.7,60.68,60.68,0,0,1,9.69,2v17.5a65.47,65.47,0,0,0-19.11-2.66q-19.74,0-19.74,12.18a11.49,11.49,0,0,0,1.12,5.32,10.39,10.39,0,0,0,3.81,3.88,36.69,36.69,0,0,0,7.6,3.4l6.93,2.31q12,4.06,18.24,11.24t6.26,18.86a31.09,31.09,0,0,1-4.44,16.84,28.61,28.61,0,0,1-12.92,10.92q-8.47,3.81-20.37,3.81A80.92,80.92,0,0,1,510.23,546.38Z"/><path class="cls-2" d="M196.09,227.39a6.84,6.84,0,0,0,5.4,2.17l44.25-2.09L209.79,348a6.73,6.73,0,0,0,2.7,7.73A35.6,35.6,0,0,0,220,360c3.09,1.1,6.94,1.79,11.85-3.35L389.18,187a6.94,6.94,0,0,0-.57-9l-.06-.06-.06-.06-.06-.06-.06-.06-.06-.06-.06-.06-.06-.06-.06-.06-.06-.06-.06-.06-.06-.06-.06-.06-.06-.06-.06-.06-.06-.06-.06-.06-.06-.06-.06-.06-.06-.06-.06-.06-.06-.06-.06-.06-.06-.06-.06-.06-.06-.06-.18-.18-.06-.06-.06-.06-.06-.06-.06-.06-.06-.06-.06-.06-.06-.06-.06-.06-.06-.06-.06-.06-.06-.06-.06-.06-.06-.06-.06-.06-.06-.06-.06-.06-.06-.06-.06-.06-.06-.06-.06-.06-.06-.06-.06-.06-.06-.06-.06-.06-.06-.06-.06-.06-.06-.06-.06-.06-.06-.06-.06-.06-.06-.06-.06-.06-.06-.06-.06-.06-.06-.06-.06-.06-.06-.06-.06-.06-.06-.06-.12-.12-.06-.06-.06-.06-.12-.12-.06-.06-.06-.06-.06-.06-.06-.06-.06-.06-.06-.06-.06-.06-.06-.06-.06-.06-.06-.06-.06-.06-.06-.06-.06-.06-.06-.06-.06-.06-.06-.06-.06-.06-.06-.06-.06-.06-.06-.06-.06-.06-.12-.12-.06-.06-.06-.06-.06-.06-.06-.06-.06-.06-.06-.06-.06-.06-.06-.06-.06-.06-.06-.06-.06-.06-.06-.06-.06-.06-.06-.06-.06-.06-.06-.06-.06-.06-.06-.06-.06-.06-.06-.06-.06-.06-.06-.06-.06-.06-.06-.06-.06-.06-.06-.06-.06-.06-.06-.06-.06-.06-.06-.06-.06-.06-.06-.06-.06-.06-.06-.06-.06-.06-.06-.06-.06-.06-.06-.06-.06-.06-.06-.06-.06-.06-.06-.06-.06-.06-.06-.06-.06-.06-.06-.06-.06-.06-.06-.06-.06-.06-.06-.06-.06-.06-.06-.06-.06-.06-.12-.12-.06-.06-.06-.06-.12-.12-.06-.06-.06-.06-.06-.06-.06-.06-.06-.06-.06-.06-.06-.06-.06-.06-.06-.06-.06-.06-.06-.06-.06-.06-.06-.06-.06-.06-.06-.06-.06-.06-.06-.06-.06-.06-.06-.06-.06-.06-.06-.06-.06-.06-.06-.06-.06-.06-.06-.06-.06-.06-.06-.06-.06-.06-.06-.06-.06-.06-.06-.06-.06-.06-.06-.06-.06-.06-.06-.06-.06-.06-.06-.06-.06-.06-.06-.06-.06-.06-.06-.06-.06-.06-.06-.06-.06-.06-.06-.06-.06-.06-.06-.06-.06-.06-.06-.06-.06-.06-.06-.06-.06-.06-.06-.06-.06-.06-.06-.06-.06-.06-.06-.06-.06-.06-.06-.06-.06-.06-.06-.06-.06-.06-.06-.06-.06-.06-.06-.06-.06-.06-.06-.06-.06-.06-.06-.06-.06-.06-.06-.06-.06-.06-.06-.06-.06-.06-.06-.06-.06-.06-.06-.06-.06-.06-.06-.06-.06-.06-.06-.06-.06-.06-.06-.06-.06-.06-.06-.06-.06-.06-.06-.06-.06-.06-.06-.06-.18-.18-.06-.06-.06-.06-.06-.06-.06-.06-.06-.06-.06-.06-.06-.06-.06-.06-.06-.06-.06-.06-.06-.06-.06-.06-.06-.06-.06-.06-.06-.06-.12-.12-.06-.06-.06-.06-.06-.06-.12-.12-.06-.06-.06-.06-.06-.06-.06-.06-.06-.06-.06-.06-.06-.06-.06-.06-.06-.06-.06-.06-.06-.06-.06-.06-.06-.06-.06-.06-.06-.06-.06-.06-.06-.06-.06-.06-.06-.06-.06-.06-.06-.06-.06-.06-.06-.06-.06-.06-.06-.06-.06-.06-.06-.06-.06-.06-.06-.06-.06-.06-.06-.06-.06-.06-.06-.06-.06-.06-.06-.06-.06-.06-.06-.06-.06-.06-.06-.06-.06-.06-.06-.06-.06-.06-.06-.06-.06-.06-.06-.06-.06-.06-.06-.06-.06-.06-.06-.06-.06-.06-.06-.06-.06-.06-.18-.18-.06-.06-.06-.06-.06-.06-.06-.06-.06-.06-.06-.06-.06-.06-.06-.06-.06-.06-.06-.06-.06-.06-.06-.06-.06-.06-.06-.06-.06-.06-.06-.06-.06-.06-.06-.06-.06-.06-.06-.06-.06-.06-.06-.06-.06-.06-.06-.06-.06-.06-.06-.06-.06-.06-.06-.06-.06-.06-.06-.06-.06-.06-.06-.06-.06-.06-.06-.06-.06-.06-.06-.06-.06-.06-.06-.06-.06-.06-.06-.06-.06-.06-.06-.06-.06-.06-.12-.12-.06-.06-.06-.06-.06-.06-.06-.06-.06-.06-.06-.06-.06-.06-.12-.12-.06-.06-.06-.06-.06-.06-.12-.12-.06-.06-.06-.06-.06-.06-.06-.06-.06-.06-.06-.06-.06-.06-.06-.06-.06-.06-.06-.06-.06-.06-.06-.06-.06-.06-.06-.06-.06-.06-.06-.06-.06-.06a6.84,6.84,0,0,0-5.4-2.17l-44.25,2.09L350.77,33.2a6.69,6.69,0,0,0-1.7-6.9l-.06-.06-.06-.06-.06-.06-.06-.06-.06-.06-.06-.06-.06-.06-.06-.06-.06-.06-.06-.06-.06-.06-.06-.06-.06-.06-.06-.06-.06-.06-.06-.06-.06-.06-.06-.06-.06-.06-.24-.24-.06-.06-.06-.06-.3-.3-.06-.06-.06-.06-.36-.36-.06-.06-.06-.06-.06-.06-.06-.06-.18-.18-.06-.06-.06-.06-.12-.12-.06-.06-.06-.06-.06-.06-.18-.18-.06-.06-.06-.06-.06-.06-.06-.06-.06-.06-.12-.12-.06-.06-.18-.18L345,22.2l-.06-.06-.06-.06-.06-.06-.06-.06-.12-.12-.06-.06-.06-.06-.24-.24-.06-.06-.06-.06-.06-.06-.12-.12-.06-.06-.12-.12-.18-.18-.06-.06-.18-.18-.06-.06-.12-.12-.06-.06-.06-.06-.18-.18-.06-.06-.12-.12-.12-.12-.06-.06-.06-.06-.06-.06-.12-.12-.06-.06-.06-.06-.06-.06-.18-.18-.06-.06-.06-.06-.24-.24-.06-.06-.06-.06-.12-.12-.12-.12-.06-.06-.06-.06-.06-.06-.12-.12-.12-.12-.12-.12-.06-.06-.18-.18-.24-.24-.06-.06-.06-.06-.06-.06-.18-.18-.12-.12-.06-.06-.06-.06-.06-.06-.06-.06-.06-.06-.06-.06-.06-.06-.06-.06-.06-.06-.06-.06-.06-.06-.06-.06-.18-.18-.06-.06-.18-.18-.06-.06-.06-.06-.06-.06-.06-.06-.06-.06-.06-.06-.06-.06-.06-.06L338,15.2l-.12-.12-.06-.06-.06-.06-.06-.06-.06-.06-.12-.12-.06-.06-.06-.06-.06-.06-.06-.06-.06-.06-.06-.06-.06-.06-.06-.06-.06-.06-.06-.06-.06-.06-.06-.06-.06-.06-.06-.06-.06-.06-.06-.06-.06-.06-.06-.06-.06-.06-.06-.06-.06-.06-.06-.06-.06-.06-.06-.06-.06-.06-.06-.06-.06-.06-.06-.06-.06-.06-.06-.06-.06-.06-.06-.06-.48-.48-.06-.06-.06-.06-.12-.12-.06-.06-.06-.06-.18-.18-.06-.06-.06-.06-.06-.06-.06-.06-.18-.18-.06-.06-.06-.06-.06-.06-.3-.3-.06-.06-.06-.06-.06-.06-.06-.06-.18-.18-.06-.06-.06-.06-.06-.06-.06-.06-.18-.18-.06-.06-.06-.06-.06-.06-.24-.24-.06-.06-.12-.12-.06-.06L332,9.28l-.12-.12-.06-.06L331.8,9l-.18-.18-.06-.06-.06-.06-.06-.06-.12-.12-.06-.06-.06-.06-.06-.06L331,8.2l-.06-.06-.06-.06L330.78,8,330.72,8l-.06-.06-.06-.06-.06-.06-.06-.06-.06-.06-.06-.06-.06-.06-.06-.06-.06-.06-.06-.06-.06-.06L330,7.23l-.06-.06-.06-.06L329.81,7,329.75,7l-.06-.06-.06-.06-.06-.06-.06-.06-.06-.06-.06-.06-.06-.06-.06-.06-.12-.12-.06-.06L329,6.27l-.12-.12-.06-.06L328.79,6,328.73,6l-.06-.06-.06-.06-.06-.06-.06-.06-.06-.06-.06-.06-.06-.06-.06-.06-.18-.18L328,5.24l-.06-.06-.06-.06-.06-.06L327.76,5l-.06-.06-.06-.06-.06-.06-.06-.06-.06-.06-.06-.06-.06-.06-.06-.06-.06-.06-.06-.06-.06-.06L327,4.27,327,4.21l-.06-.06-.06-.06L326.8,4,326.73,4l-.06-.06-.06-.06-.06-.06-.06-.06-.06-.06-.06-.06-.06-.06-.06-.06-.06-.06-.06-.06-.06-.06L326,3.25,326,3.19l-.06-.06-.06-.06L325.77,3l-.06-.06-.06-.06-.06-.06-.06-.06-.06-.06-.12-.12-.06-.06-.06-.06-.06-.06L325,2.28,325,2.22l-.06-.06a6.92,6.92,0,0,0-10.62.68L171.38,194.23a6.94,6.94,0,0,0,.57,9"/><path class="cls-3" d="M359.06,151.68l-66.3,3.13a7,7,0,0,1-7-9L326.57,9c2.23-7.46-7.6-12.4-12.26-6.16L171.38,194.23a7,7,0,0,0,5.91,11.13l66.3-3.13a7,7,0,0,1,7,9L209.79,348c-2.23,7.46,7.6,12.4,12.26,6.16L365,162.81A7,7,0,0,0,359.06,151.68Z"/></g></g></g></svg>