<svg xmlns="http://www.w3.org/2000/svg" viewBox="0 0 220.6 360.76"><defs><style>.cls-1{fill:#27223e;}.cls-2{fill:#4c3f85;}</style></defs><title>logo-square</title><g id="Layer_2" data-name="Layer 2"><g id="Layer_1-2" data-name="Layer 1"><path class="cls-1" d="M26.11,227.39a6.84,6.84,0,0,0,5.4,2.17l44.25-2.09L39.81,348a6.73,6.73,0,0,0,2.7,7.73A35.6,35.6,0,0,0,50,360c3.09,1.1,6.94,1.79,11.85-3.35L219.2,187a6.94,6.94,0,0,0-.57-9l-.06-.06-.06-.06-.06-.06-.06-.06-.06-.06-.06-.06-.06-.06-.06-.06-.06-.06-.06-.06-.06-.06-.06-.06-.06-.06-.06-.06-.06-.06-.06-.06-.06-.06-.06-.06-.06-.06-.06-.06-.06-.06-.06-.06-.06-.06-.06-.06-.06-.06-.18-.18-.06-.06-.06-.06-.06-.06-.06-.06-.06-.06-.06-.06-.06-.06-.06-.06-.06-.06-.06-.06-.06-.06-.06-.06-.06-.06-.06-.06-.06-.06-.06-.06-.06-.06-.06-.06-.06-.06-.06-.06-.06-.06-.06-.06-.06-.06-.06-.06-.06-.06-.06-.06-.06-.06-.06-.06-.06-.06-.06-.06-.06-.06-.06-.06-.06-.06-.06-.06-.06-.06-.06-.06-.06-.06-.06-.06-.06-.06-.12-.12-.06-.06-.06-.06-.12-.12-.06-.06-.06-.06-.06-.06-.06-.06-.06-.06-.06-.06-.06-.06-.06-.06-.06-.06-.06-.06-.06-.06-.06-.06-.06-.06-.06-.06-.06-.06-.06-.06-.06-.06-.06-.06-.06-.06-.06-.06-.06-.06-.12-.12-.06-.06-.06-.06-.06-.06-.06-.06-.06-.06-.06-.06-.06-.06-.06-.06-.06-.06-.06-.06-.06-.06-.06-.06-.06-.06-.06-.06-.06-.06-.06-.06-.06-.06-.06-.06-.06-.06-.06-.06-.06-.06-.06-.06-.06-.06-.06-.06-.06-.06-.06-.06-.06-.06-.06-.06-.06-.06-.06-.06-.06-.06-.06-.06-.06-.06-.06-.06-.06-.06-.06-.06-.06-.06-.06-.06-.06-.06-.06-.06-.06-.06-.06-.06-.06-.06-.06-.06-.06-.06-.06-.06-.06-.06-.06-.06-.06-.06-.06-.06-.06-.06-.06-.06-.06-.06-.12-.12-.06-.06-.06-.06-.12-.12-.06-.06-.06-.06-.06-.06-.06-.06-.06-.06-.06-.06-.06-.06-.06-.06-.06-.06-.06-.06-.06-.06-.06-.06-.06-.06-.06-.06-.06-.06-.06-.06-.06-.06-.06-.06-.06-.06-.06-.06-.06-.06-.06-.06-.06-.06-.06-.06-.06-.06-.06-.06-.06-.06-.06-.06-.06-.06-.06-.06-.06-.06-.06-.06-.06-.06-.06-.06-.06-.06-.06-.06-.06-.06-.06-.06-.06-.06-.06-.06-.06-.06-.06-.06-.06-.06-.06-.06-.06-.06-.06-.06-.06-.06-.06-.06-.06-.06-.06-.06-.06-.06-.06-.06-.06-.06-.06-.06-.06-.06-.06-.06-.06-.06-.06-.06-.06-.06-.06-.06-.06-.06-.06-.06-.06-.06-.06-.06-.06-.06-.06-.06-.06-.06-.06-.06-.06-.06-.06-.06-.06-.06-.06-.06-.06-.06-.06-.06-.06-.06-.06-.06-.06-.06-.06-.06-.06-.06-.06-.06-.06-.06-.06-.06-.06-.06-.06-.06-.06-.06-.06-.06-.06-.06-.06-.06-.06-.06-.18-.18-.06-.06-.06-.06-.06-.06-.06-.06-.06-.06-.06-.06-.06-.06-.06-.06-.06-.06-.06-.06-.06-.06-.06-.06-.06-.06-.06-.06-.06-.06-.12-.12-.06-.06-.06-.06-.06-.06-.12-.12-.06-.06-.06-.06-.06-.06-.06-.06-.06-.06-.06-.06-.06-.06-.06-.06-.06-.06-.06-.06-.06-.06-.06-.06-.06-.06-.06-.06-.06-.06-.06-.06-.06-.06-.06-.06-.06-.06-.06-.06-.06-.06-.06-.06-.06-.06-.06-.06-.06-.06-.06-.06-.06-.06-.06-.06-.06-.06-.06-.06-.06-.06-.06-.06-.06-.06-.06-.06-.06-.06-.06-.06-.06-.06-.06-.06-.06-.06-.06-.06-.06-.06-.06-.06-.06-.06-.06-.06-.06-.06-.06-.06-.06-.06-.06-.06-.06-.06-.06-.06-.06-.06-.06-.06-.18-.18-.06-.06-.06-.06-.06-.06-.06-.06-.06-.06-.06-.06-.06-.06-.06-.06-.06-.06-.06-.06-.06-.06-.06-.06-.06-.06-.06-.06-.06-.06-.06-.06-.06-.06-.06-.06-.06-.06-.06-.06-.06-.06-.06-.06-.06-.06-.06-.06-.06-.06-.06-.06-.06-.06-.06-.06-.06-.06-.06-.06-.06-.06-.06-.06-.06-.06-.06-.06-.06-.06-.06-.06-.06-.06-.06-.06-.06-.06-.06-.06-.06-.06-.06-.06-.06-.06-.12-.12-.06-.06-.06-.06-.06-.06-.06-.06-.06-.06-.06-.06-.06-.06-.12-.12-.06-.06-.06-.06-.06-.06-.12-.12-.06-.06-.06-.06-.06-.06-.06-.06-.06-.06-.06-.06-.06-.06-.06-.06-.06-.06-.06-.06-.06-.06-.06-.06-.06-.06-.06-.06-.06-.06-.06-.06-.06-.06a6.84,6.84,0,0,0-5.4-2.17l-44.25,2.09L180.79,33.2a6.69,6.69,0,0,0-1.7-6.9l-.06-.06-.06-.06-.06-.06-.06-.06-.06-.06-.06-.06-.06-.06-.06-.06-.06-.06-.06-.06-.06-.06-.06-.06-.06-.06-.06-.06-.06-.06-.06-.06-.06-.06-.06-.06-.06-.06-.24-.24-.06-.06-.06-.06-.3-.3-.06-.06-.06-.06-.36-.36-.06-.06-.06-.06-.06-.06-.06-.06-.18-.18-.06-.06-.06-.06-.12-.12-.06-.06-.06-.06-.06-.06-.18-.18-.06-.06-.06-.06-.06-.06-.06-.06-.06-.06-.12-.12-.06-.06-.18-.18L175,22.2l-.06-.06-.06-.06L174.8,22l-.06-.06-.12-.12-.06-.06-.06-.06-.24-.24-.06-.06-.06-.06-.06-.06-.12-.12-.06-.06-.12-.12-.18-.18-.06-.06-.18-.18-.06-.06-.12-.12-.06-.06-.06-.06-.18-.18-.06-.06-.12-.12-.12-.12-.06-.06-.06-.06-.06-.06-.12-.12-.06-.06-.06-.06-.06-.06-.18-.18-.06-.06-.06-.06-.24-.24-.06-.06-.06-.06-.12-.12-.12-.12-.06-.06-.06-.06-.06-.06-.12-.12-.12-.12-.12-.12-.06-.06-.18-.18-.24-.24-.06-.06-.06-.06-.06-.06-.18-.18-.12-.12-.06-.06-.06-.06-.06-.06-.06-.06-.06-.06-.06-.06-.06-.06-.06-.06-.06-.06-.06-.06-.06-.06-.06-.06-.18-.18-.06-.06-.18-.18-.06-.06-.06-.06-.06-.06-.06-.06-.06-.06-.06-.06-.06-.06-.06-.06L168,15.2l-.12-.12L167.8,15l-.06-.06-.06-.06-.06-.06-.12-.12-.06-.06-.06-.06-.06-.06-.06-.06-.06-.06-.06-.06-.06-.06-.06-.06-.06-.06-.06-.06-.06-.06-.06-.06-.06-.06-.06-.06-.06-.06-.06-.06-.06-.06-.06-.06-.06-.06-.06-.06-.06-.06-.06-.06-.06-.06-.06-.06-.06-.06-.06-.06-.06-.06-.06-.06-.06-.06-.06-.06-.06-.06-.06-.06-.48-.48-.06-.06-.06-.06-.12-.12-.06-.06-.06-.06-.18-.18-.06-.06-.06-.06-.06-.06-.06-.06-.18-.18-.06-.06-.06-.06-.06-.06-.3-.3-.06-.06-.06-.06-.06-.06-.06-.06-.18-.18-.06-.06-.06-.06-.06-.06-.06-.06-.18-.18-.06-.06-.06-.06-.06-.06-.24-.24-.06-.06-.12-.12-.06-.06-.06-.06-.12-.12-.06-.06L161.83,9l-.18-.18-.06-.06-.06-.06-.06-.06-.12-.12-.06-.06-.06-.06-.06-.06L161,8.2l-.06-.06-.06-.06L160.8,8,160.74,8l-.06-.06-.06-.06-.06-.06-.06-.06-.06-.06-.06-.06-.06-.06-.06-.06-.06-.06-.06-.06-.06-.06L160,7.23,160,7.17l-.06-.06L159.83,7,159.77,7l-.06-.06-.06-.06-.06-.06-.06-.06-.06-.06-.06-.06-.06-.06-.06-.06-.12-.12-.06-.06L159,6.27l-.12-.12-.06-.06L158.81,6,158.75,6l-.06-.06-.06-.06-.06-.06-.06-.06-.06-.06-.06-.06-.06-.06-.06-.06-.18-.18L158,5.24,158,5.18l-.06-.06-.06-.06L157.78,5l-.06-.06-.06-.06-.06-.06-.06-.06-.06-.06-.06-.06-.06-.06-.06-.06-.06-.06-.06-.06-.06-.06-.06-.06L157,4.21l-.06-.06-.06-.06L156.82,4,156.76,4l-.06-.06-.06-.06-.06-.06-.06-.06-.06-.06-.06-.06-.06-.06-.06-.06-.06-.06-.06-.06-.06-.06L156,3.25,156,3.19l-.06-.06-.06-.06L155.79,3l-.06-.06-.06-.06-.06-.06-.06-.06-.06-.06-.12-.12-.06-.06-.06-.06-.06-.06-.12-.12L155,2.22l-.06-.06a6.92,6.92,0,0,0-10.62.68L1.4,194.23a6.94,6.94,0,0,0,.57,9"/><path class="cls-2" d="M189.09,151.68l-66.3,3.13a7,7,0,0,1-7-9L156.59,9c2.23-7.46-7.6-12.4-12.26-6.16L1.4,194.23a7,7,0,0,0,5.91,11.13l66.3-3.13a7,7,0,0,1,7,9L39.81,348c-2.23,7.46,7.6,12.4,12.26,6.16L195,162.81A7,7,0,0,0,189.09,151.68Z"/></g></g></svg>